<svg xmlns="http://www.w3.org/2000/svg" viewBox="0 0 283.46 283.46">
    <defs>
        <style>.cls-1{fill:#f7941d;}.cls-2{fill:#ca6728;}.cls-3{fill:#b75527;}.cls-4{fill:none;stroke:#ca6728;stroke-linecap:round;stroke-linejoin:round;stroke-width:0.5px;}.cls-10,.cls-12,.cls-14,.cls-15,.cls-17,.cls-18,.cls-19,.cls-20,.cls-21,.cls-5,.cls-6{fill:#fff;}.cls-5{opacity:0.38;}.cls-6{opacity:0.4;}.cls-7{fill:#653513;}.cls-8{fill:#2f1010;}.cls-9{fill:#cc2027;}.cls-11{fill:#faf39b;}.cls-12{opacity:0.45;}.cls-13{fill:#976728;}.cls-14{opacity:0.52;}.cls-15{opacity:0.56;}.cls-16{opacity:0.43;}.cls-17{opacity:0.5;}.cls-18{opacity:0.58;}.cls-19{opacity:0.86;}.cls-20{opacity:0.91;}.cls-21{opacity:0.81;}.cls-22{fill:#c9982b;opacity:0.33;}</style>
    </defs>
    <g id="kulturko">
        <path class="cls-1" d="M66.77,17.41s-.78-3.56-1.28-5.93-4.11-1.8-4.22-.26a73.79,73.79,0,0,0,1,16.18c1.25,7.08,9.73,7.16,16.59,6.42S88.57,26.76,91.21,24s2.23-4.36,1.3-5-2.62-.2-4.26,1.39-2.89,4.35-5.2,3.25S81,13,80.79,10.44a2.65,2.65,0,0,0-2.61-2.72c-1.12.07-1.87.62-2.14,2.55s-.36,9.67-.36,9.67Z"/>
        <path class="cls-2" d="M66.69,17.05a7.67,7.67,0,0,0-1,2.7s-.94-4-1.21-5.76a11.2,11.2,0,0,0-1.08-4.11,2,2,0,0,1,2.06,1.6c.41,1.92,1,4.62,1.2,5.57"/>
        <path class="cls-3" d="M75.71,17a19.07,19.07,0,0,1,1.81,3.82,8.41,8.41,0,0,1,.27,3.56l-2.65,1.05a2.43,2.43,0,0,1-2,0,3.38,3.38,0,0,1-1.43-1s-.08,1-1.57,1.2S67.47,26,66.46,23s9.25-6,9.25-6"/>
        <path class="cls-4" d="M77.84,24.56a6.4,6.4,0,0,0-5.12,4.07"/>
        <path class="cls-2" d="M85.39,23.66c-1.45,1.48-4.21.58-5.08-1s-1.06-6.93-1-10.59-.69-4.18-.69-4.18l.26,0a2.8,2.8,0,0,1,1.89,2.64c.16,2.51-.05,12,2.26,13.14a2.21,2.21,0,0,0,2.56-.37,1.18,1.18,0,0,1-.22.45"/>
        <path class="cls-1" d="M73,16.22c2.45-.22,3.47,1.29,3.52,3.86s-.47,3.87-2.18,4.09-2.83-1.67-3.06-4,.2-3.86,1.72-4"/>
        <path class="cls-1" d="M68.15,16.27C70.3,16.13,71,17.44,71,20s-.22,4.15-2,4.27S66,22.66,65.8,20.38c-.18-2.45.83-4,2.35-4.11"/>
        <path class="cls-2" d="M72.16,22.93a2.36,2.36,0,0,0,2.15-.78c1.41-1.24.82-4.33.18-5.82,1.41.41,2,1.77,2.07,3.75.06,2.57-.47,3.87-2.18,4.09a2.25,2.25,0,0,1-2.22-1.24"/>
        <path class="cls-2" d="M68.9,22.3c1.33-.56,1.21-3.66.45-5.92C70.57,16.76,71,18,71,20c.06,2.69-.22,4.15-2,4.27a3,3,0,0,1-2.8-2,3.28,3.28,0,0,0,2.61,0"/>
        <path class="cls-2" d="M91.44,113.59c-9.68-9.39-14.76-34.09-14.7-53.86C77,50.84,75.88,45,78.66,35c.54-.33,6-3.47,6.43-3.87h0c2.74-2.28,4.47-5.41,6.12-7.17,2.65-2.8,2.23-4.36,1.3-5l-.12-.07c-.46,1.33-2.3,3.64-4.45,6.29a17.32,17.32,0,0,1-10.7,6.64c-4.28.73-9,1.18-12.78-.3l.42.36C66.21,33.09,70,33.5,70.4,36c3.27,22.18-4.78,58.55,20.4,84.51Z"/>
        <path class="cls-1" d="M219.72,13.73s.77-3.68,1.28-6.14,4.11-1.86,4.22-.27a79.15,79.15,0,0,1-1,16.76c-1.25,7.33-9.73,7.42-16.59,6.65s-9.68-7.31-12.33-10.22S193.05,16,194,15.32s2.62-.22,4.26,1.43,2.89,4.51,5.2,3.37,2.1-11,2.26-13.61a2.7,2.7,0,0,1,2.61-2.82c1.12.08,1.87.64,2.14,2.64s.35,10,.35,10Z"/>
        <path class="cls-2" d="M219.8,13.36a8.34,8.34,0,0,1,1,2.79s.94-4.17,1.21-6a12,12,0,0,1,1.08-4.26A2,2,0,0,0,221,7.59c-.41,2-1,4.78-1.2,5.77"/>
        <path class="cls-3" d="M210.77,13.32a20,20,0,0,0-1.8,3.95A9,9,0,0,0,208.7,21l2.64,1.09a2.36,2.36,0,0,0,2,0,3.34,3.34,0,0,0,1.43-1s.08,1.06,1.57,1.24,2.63.34,3.64-2.69-9.26-6.24-9.26-6.24"/>
        <path class="cls-4" d="M208.65,21.13a6.43,6.43,0,0,1,5.12,4.22"/>
        <path class="cls-2" d="M201.1,20.2c1.45,1.54,4.21.6,5.08-1.08s1.06-7.18,1-11,.69-4.33.69-4.33l-.26-.05a2.89,2.89,0,0,0-1.89,2.73c-.16,2.6.05,12.47-2.26,13.61a2.17,2.17,0,0,1-2.56-.38,1.16,1.16,0,0,0,.22.46"/>
        <path class="cls-1" d="M213.45,12.5c-2.45-.23-3.47,1.34-3.53,4s.48,4,2.19,4.23,2.83-1.72,3.06-4.09-.21-4-1.72-4.14"/>
        <path class="cls-1" d="M218.33,12.55c-2.14-.14-2.83,1.21-2.88,3.87s.22,4.3,2,4.42,3.12-1.67,3.29-4c.18-2.53-.83-4.16-2.36-4.25"/>
        <path class="cls-2" d="M214.33,19.45a2.3,2.3,0,0,1-2.15-.81c-1.41-1.29-.82-4.48-.18-6-1.41.43-2,1.83-2.08,3.89-.06,2.66.48,4,2.19,4.23a2.23,2.23,0,0,0,2.22-1.28"/>
        <path class="cls-2" d="M217.58,18.8c-1.33-.58-1.2-3.79-.45-6.14-1.21.4-1.64,1.68-1.68,3.76-.06,2.79.22,4.3,2,4.42a3,3,0,0,0,2.8-2,3.26,3.26,0,0,1-2.62,0"/>
        <path class="cls-2" d="M195.05,113.35c9.68-9.73,14.76-35.31,14.7-55.79-.29-9.21.85-15.26-1.92-25.62-.55-.34-6-3.6-6.44-4h0c-2.73-2.36-4.46-5.6-6.12-7.42-2.64-2.91-2.22-4.52-1.29-5.19l.12-.08c.46,1.38,2.3,3.77,4.45,6.52a17.22,17.22,0,0,0,10.7,6.87c4.28.76,9.05,1.23,12.78-.31a5,5,0,0,1-.42.37c-1.34,1.28-5.16,1.71-5.52,4.25-3.27,23,4.78,60.64-20.4,87.53Z"/>
        <path class="cls-2" d="M117.16,240.15c-3.45,2.92-3.45,2.92-7.06,7.79-4.19,5.66.55,10.05,5.52,13.29,7.66,5.2,11.65,7.47,17.25,12.66-5.35,2.91-17.63-1-22.61,2.91,3.45,4.22,18.38,1.95,24.13,1.63,11.1-.65,5.35-4.21-1.15-8.43-5.74-4.23-12.64-7.47-18-12-8-7.46.59-9.76,8.25-15.28Z"/>
        <path class="cls-1" d="M97.47,226.13c10.7,27.67,61,25.89,81.5,17.86,8.42-3.72,17.72-14,20.05-36.43,5.42-52.2.56-123.14-14.71-138.79-11.4-15.83-54.54-28.55-84.56,4.79C84.8,91,88.63,202,97.47,226.13"/>
        <path class="cls-2" d="M146.63,55.29c.6.51,2,2.05,2.47,2.57,22.31,21.42,24.2,39,24.2,69.31,0,28.56,6.29,84.77-19.59,94.58-17.62,10.41-40.33,1-58.16-2.32,7.43,37.74,65.45,31.76,82.64,24,26.88-11.68,22.07-72.86,19.6-110.81-3.65-38.57-6.09-76-51.16-77.37"/>
        <path class="cls-5" d="M116.89,90.16C133.16,70,158.63,60.81,175.17,64c-11.19-9.47-50-18.3-75.7,13.48-6.73,11.53-7.55,44.63-7.76,68.67.49,29.84.6,53.61,8.41,79.24,6.18,18.36,45.1,27.81,62.64,14.21-23.83-4.77-36.42-3.57-43.66-23.63-13.75-38.09-20.26-98.82-2.21-125.77"/>
        <path class="cls-6" d="M100.08,195.31a8.9,8.9,0,1,1,7.34,10.23,8.89,8.89,0,0,1-7.34-10.23"/>
        <path class="cls-6" d="M108.36,187.65a5.16,5.16,0,1,1,4.26,5.93,5.17,5.17,0,0,1-4.26-5.93"/>
        <path class="cls-3" d="M196.07,130.51a7.65,7.65,0,1,1-7.64-7.65,7.65,7.65,0,0,1,7.64,7.65"/>
        <path class="cls-3" d="M197.12,154.65a2.57,2.57,0,1,1-2.56-2.57,2.57,2.57,0,0,1,2.56,2.57"/>
        <path class="cls-3" d="M184.69,171.19a6,6,0,1,1-6-6,6,6,0,0,1,6,6"/>
        <path class="cls-3" d="M195.94,200a2.28,2.28,0,1,1-2.28-2.28,2.28,2.28,0,0,1,2.28,2.28"/>
        <path class="cls-3" d="M199.11,186.05a3.17,3.17,0,1,1-3.17-3.16,3.17,3.17,0,0,1,3.17,3.16"/>
        <path class="cls-3" d="M182.82,212.19a4,4,0,1,1-4-4,4,4,0,0,1,4,4"/>
        <path class="cls-3" d="M166.84,236.51a6.18,6.18,0,1,1-6.18-6.18,6.18,6.18,0,0,1,6.18,6.18"/>
        <path class="cls-3" d="M182.82,232.33a2,2,0,1,1-2-2,2,2,0,0,1,2,2"/>
        <path class="cls-3" d="M141.72,238.46a3.64,3.64,0,1,1-3.64-3.64,3.63,3.63,0,0,1,3.64,3.64"/>
        <path class="cls-7" d="M116.88,128.47c-1.54,5.49,1.65,13.16,4.3,17.63,4,6.35,12,10.08,18.69,11.43,13.29,2.67,29.51-5.65,32.43-19.21,1.08-5.51,3.08-12-4.29-12.68-7.14-.66-9.2,5.37-19.59,7.17-5,.86-10.88.85-15.45-1.36-3.42-1.71-12.43-10-15.85-3.44-.23.23-.24.46-.48.68Z"/>
        <path class="cls-8" d="M135.55,146.45c-3-2.82-4.18-8.34-3.59-12.25.43-3,1.74-2.94,4.34-1.91,2,.77,4,1.9,6.13,2.67a3.37,3.37,0,0,0,0,3.22c-2,.54-1.4,3.06.25,3.7a2.45,2.45,0,0,0,3.41-2.76c-.11-.48-.7-.5-.81-.74-.11-.48.14-.83,0-1.31-.33-1.32-.32-1.56.65-2.13,1.21-.67,3.47-.62,4.92-1.29s2.91-1.71,4.44-.83c1.28.87,1.81,3.39,2,4.82a11.23,11.23,0,0,1-1.77,7.7c-2.36,3.63-6.93,4.93-11.1,5a13.65,13.65,0,0,1-3.81-.34c-2.24-.65-3.26-2.48-5.25-3.6Z"/>
        <path class="cls-9" d="M143.33,147.52a9.21,9.21,0,0,0-8.54-1.43c-2.89,1.1-4.65,4.27-5.8,7l-.22.06a35.25,35.25,0,0,0,11.56,4.55,29.93,29.93,0,0,0,21.08-4.11c.31-.87-.17-1.45-1-2.61-4-5.35-11-8.65-17.07-3.45"/>
        <path class="cls-10" d="M129.05,129.2c.65,2,.58,4.56,1.67,6.44.54,1,4,3.38,5.48,2.15.58-.56,1.11-4.1-.57-5s-4-2.17-6.3-3.72Z"/>
        <path class="cls-10" d="M150.35,132.85c.48,3.57-.16,6.11,3.61,5,3.18-.93,4.32-5.49,3.7-8.49-2.3,1.07-4.48,2.57-7.3,3.33Z"/>
        <path class="cls-10" d="M138.8,157.5c0-1.85-3.39-9.52,3.07-8.72,2.68.33,2.29,7.35,2.24,9.34-1.7,0-3.78.14-5.31-.62"/>
        <path class="cls-10" d="M150.11,157.7c0-1.85,2.41-7.87-1.46-8.85-5.32-1.33-3.9,7.43-4,9.42a13.72,13.72,0,0,0,5.42-.57"/>
        <path class="cls-2" d="M146.12,107.83a23.29,23.29,0,1,1-6-32.39,23.31,23.31,0,0,1,6,32.39"/>
        <path class="cls-2" d="M174.19,74.32A23,23,0,0,0,143.07,79a3.85,3.85,0,0,1,2.12,4.68c-1.82,6.51-1.13,13.17-.82,19.83a3.48,3.48,0,0,1-1.8,3.43,23,23,0,1,0,31.62-32.63"/>
        <path class="cls-11" d="M143.66,106.14a20.74,20.74,0,1,1-5.35-28.85,20.74,20.74,0,0,1,5.35,28.85"/>
        <path class="cls-12" d="M112.94,87.21A20.05,20.05,0,0,1,140.84,82a20.88,20.88,0,0,1,3.22,2.74,20.07,20.07,0,1,0-32,23.69,20.07,20.07,0,0,1,.92-21.26"/>
        <path class="cls-13" d="M173,46.43c6.34,1.28,9.74-9.53,8.25-14.26-1.11-4.13-5-9.58-9-11.09,9.18,2.41,15.2,7.81,17,18.71,1.44,7.34,1.32,15.18-3.58,21.26-4.27,5.68-14.31,9.38-20.13,3.81S163.23,47.49,173,46.43"/>
        <path class="cls-7" d="M179.16,61.39c4.83-5.72,5.37-13.5,4.42-20.89-.17-1.65-.57-5.57-.93-7.08-.8-4.16-4.07-9.82-7.75-11.58,8.34,3,13.61,8.72,14.73,19.66,1,7.39.41,15.17-4.42,20.89-3.58,4.54-10.88,7.4-16.13,4.63a15.76,15.76,0,0,0,10.08-5.63"/>
        <path class="cls-14" d="M168.55,62.54c-3-3.61-.26-10.25,5.51-10.25,3,1,5.4-3.18,5.73-6.22a18.5,18.5,0,0,1,.35,2.61c.38,4.37-.19,8.93-3.42,12.17a10.33,10.33,0,0,1-6.55,3,5.68,5.68,0,0,1-1.62-1.34"/>
        <path class="cls-13" d="M111.52,47.36c-6.34,1.27-9.74-9.54-8.25-14.27,1.1-4.13,5-9.57,9-11.09-9.18,2.42-15.2,7.81-17,18.71C93.82,48.06,94,55.9,98.84,62c4.28,5.69,14.32,9.38,20.14,3.81s2.33-17.36-7.46-18.42"/>
        <path class="cls-7" d="M105.38,62.31C98.6,54.87,97.15,47,99.44,35.5c.8-4.17,6.52-11,10.2-12.74-8.34,3-13.61,8.72-14.73,19.67-1,7.38-.42,15.16,4.42,20.88,3.58,4.54,10.88,7.4,16.13,4.64a15.77,15.77,0,0,1-10.08-5.64"/>
        <path class="cls-14" d="M116,63.47c3-3.61.26-10.26-5.51-10.26-3,1-5.4-3.18-5.73-6.21a17.15,17.15,0,0,0-.35,2.61c-.38,4.37.19,8.93,3.42,12.16a10.28,10.28,0,0,0,6.55,3A5.81,5.81,0,0,0,116,63.47"/>
        <path class="cls-2" d="M177,240.15c3.45,2.92,3.45,2.92,7,7.79,4.19,5.66-.55,10.05-5.52,13.29-7.66,5.2-11.65,7.47-17.25,12.66,5.36,2.91,17.63-1,22.61,2.91-3.44,4.22-18.38,1.95-24.13,1.63-11.09-.65-5.35-4.21,1.16-8.43,5.74-4.23,12.63-7.47,18-12,8-7.46-.59-9.76-8.25-15.28Z"/>
        <path class="cls-3" d="M195.05,114.07a5.32,5.32,0,1,1-5.31-5.32,5.31,5.31,0,0,1,5.31,5.32"/>
        <path class="cls-8" d="M140,94.68A13,13,0,1,1,126.9,81.77,13,13,0,0,1,140,94.68"/>
        <path class="cls-15" d="M131.42,150c.63-5.22,9.19-4.51,12.09-1.93,2.74-3.86,11.06-3.27,12.72,1.43-1.93-3.51-10.4-3-12.64,0-2.9-2.46-9.89-4.2-11.92.51Z"/>
        <path class="cls-16" d="M127.09,104.61a13,13,0,0,1-13-11.31,12.08,12.08,0,0,0-.08,1.6,13,13,0,1,0,26-.22,12.17,12.17,0,0,0-.11-1.6,13,13,0,0,1-12.82,11.53"/>
        <path class="cls-17" d="M126.93,85.68a12.21,12.21,0,0,1,12.2,10.61,12.62,12.62,0,0,0,.08-1.51,12.2,12.2,0,1,0-24.4.21,10.6,10.6,0,0,0,.1,1.5,12.21,12.21,0,0,1,12-10.81"/>
        <path d="M135.66,98.08a8.63,8.63,0,1,1-8.7-8.55,8.63,8.63,0,0,1,8.7,8.55"/>
        <path class="cls-18" d="M132.24,93.72a5.38,5.38,0,1,1-5.42-5.34,5.37,5.37,0,0,1,5.42,5.34"/>
        <path class="cls-19" d="M127,91a2.9,2.9,0,1,1-2.92-2.87A2.9,2.9,0,0,1,127,91"/>
        <path class="cls-20" d="M138.07,103a1.91,1.91,0,1,1-1.92-1.9,1.9,1.9,0,0,1,1.92,1.9"/>
        <path class="cls-21" d="M138.63,101a1.25,1.25,0,0,1-1.23,1.25,1.24,1.24,0,0,1,0-2.48,1.26,1.26,0,0,1,1.26,1.23"/>
        <path class="cls-22" d="M147.27,95.82A20.75,20.75,0,0,1,106.81,88a20.75,20.75,0,1,0,40.46,7.79"/>
        <path class="cls-11" d="M181.61,93a20.86,20.86,0,1,1-21-20.68,20.87,20.87,0,0,1,21,20.68"/>
        <path class="cls-12" d="M145.39,95.13a20.18,20.18,0,0,1,20-20.34,19.65,19.65,0,0,1,4.23.41,20.18,20.18,0,1,0-12.75,38,20.18,20.18,0,0,1-11.49-18.05"/>
        <path class="cls-8" d="M173.78,94.68a13,13,0,1,1-13.12-12.91,13,13,0,0,1,13.12,12.91"/>
        <path class="cls-17" d="M160.69,85.68a12.21,12.21,0,0,1,12.2,10.61,12.62,12.62,0,0,0,.08-1.51,12.21,12.21,0,1,0-24.3,1.71,12.21,12.21,0,0,1,12-10.81"/>
        <path d="M169.42,98.08a8.63,8.63,0,1,1-8.7-8.55,8.63,8.63,0,0,1,8.7,8.55"/>
        <path class="cls-18" d="M166.1,93.71a5.39,5.39,0,1,1-5.43-5.34,5.38,5.38,0,0,1,5.43,5.34"/>
        <path class="cls-19" d="M160.78,91a2.9,2.9,0,1,1-2.91-2.87A2.89,2.89,0,0,1,160.78,91"/>
        <path class="cls-20" d="M171.83,103a1.91,1.91,0,1,1-1.93-1.9,1.9,1.9,0,0,1,1.93,1.9"/>
        <path class="cls-21" d="M172.39,101a1.25,1.25,0,0,1-2.49,0,1.25,1.25,0,0,1,2.49,0"/>
        <path class="cls-22" d="M178.63,82.44a20.86,20.86,0,0,1-35.16,20.41,21.42,21.42,0,0,1-2.65-3.51,20.86,20.86,0,1,0,37.81-16.9"/>
        <path class="cls-16" d="M160.85,104.61a13,13,0,0,1-13-11.31,12.08,12.08,0,0,0-.08,1.6,13,13,0,1,0,26-.22,12.17,12.17,0,0,0-.11-1.6,13,13,0,0,1-12.82,11.53"/>
    </g>
</svg>