<svg xmlns="http://www.w3.org/2000/svg" viewBox="0 0 283.46 283.46">
    <defs>
        <style>.cls-1,.cls-7{fill:#329946;}.cls-2{fill:#f89838;}.cls-3{fill:#366732;}.cls-14,.cls-3{opacity:0.5;}.cls-4{fill:#6fbe44;}.cls-11,.cls-14,.cls-15,.cls-16,.cls-17,.cls-18,.cls-19,.cls-24,.cls-5,.cls-8{fill:#fff;}.cls-5{opacity:0.36;}.cls-6{fill:#a4cd39;}.cls-7{opacity:0.6;}.cls-8{opacity:0.48;}.cls-9{fill:#faf39b;}.cls-10{fill:#c9982b;opacity:0.33;}.cls-11{opacity:0.45;}.cls-12{fill:#2f1010;}.cls-13{opacity:0.43;}.cls-15{opacity:0.58;}.cls-16{opacity:0.86;}.cls-17{opacity:0.91;}.cls-18{opacity:0.81;}.cls-19{opacity:0.4;}.cls-20{fill:#650933;}.cls-21{fill:#2e111f;}.cls-22{fill:#ed1c24;}.cls-23{fill:#991a36;opacity:0.34;}</style>
    </defs>
    <g id="športko">
        <path class="cls-1" d="M84.13,142c-9.24,1-20.1-8.4-26.74-14a96.41,96.41,0,0,1-18.75-20.36c-4.56-7.4-8.84-15.71-10.89-24C24.63,71.71,31,68.05,34,57.87a20.25,20.25,0,0,0,1.11-6.58c-2.67,1.38-5.16,4.54-7.68,6.21-2.58-3.55-4.59-8.89-8.35-11.83-1.15,4.34.7,8.65.6,12.82-4.18-.09-7.48-2.15-11.53-3.44,2.44,4,7.09,6.48,8.79,11.24,2,4.6,2.37,10.42,3.48,15.47,1.41,6.4,2.84,13.54,6.35,19.62,8.69,15.41,20.95,29.74,35.55,39.85,4.06,2.79,30.62,15,21.64.49Z"/>
        <path class="cls-2" d="M18.39,42.34c.74,1.43,7.39,9.09,1.91,9-3.59,0-3.24-7.6-2.28-9.68Z"/>
        <path class="cls-2" d="M7.36,51.65c1.63,1,8.31,3.85,4.84,6.77-3.73,3.29-5-5.33-5.3-7.22Z"/>
        <path class="cls-2" d="M36.2,50.13c0,2.25-1,10.89-4.86,6.8-3.65-3.55,4-6.79,5.56-7.62Z"/>
        <path class="cls-1" d="M160.7,230.11c-2.7,9.07,1.55,21.09,6.83,28.56-13.95,7.84-43.82,7-47.55-12-2.13-11-2.82-19.29,10.61-19.53,9.76-.33,18.49,3.87,27.93,4.44Z"/>
        <path class="cls-2" d="M168,259.66c-1-2.9-5-5.3-8.11-4.3-3.44,1-4.33,5.4-4.48,8.45A40.57,40.57,0,0,0,168,259.66"/>
        <path class="cls-2" d="M158.8,263c-.38-2.87-3.47-6-6.45-5.79-3.29.11-4.95,3.91-5.67,6.65A43.2,43.2,0,0,0,160.1,263Z"/>
        <path class="cls-2" d="M149.88,263.87c.24-2.31-1.58-5.32-3.95-5.73-2.59-.54-4.6,2.12-5.68,4.12a34.63,34.63,0,0,0,10.64,1.87Z"/>
        <path class="cls-3" d="M139.2,262.08c-5.86-1.6-12.34-9.76-6.76-15.35,2.46-2.33,6.78-2.68,10-3.23a40.72,40.72,0,0,0,9.19-3.41c6.63-3.17,11.54-7.5,4.69-13.76-3.73-3.3-8.18-4.38-13-4.51-6-.49-10.41,1.46-15.6,4.19-6.15,3.34-9.08,5.17-9.28,12.51,0,5.27,1.9,11.86,5.62,15.79,2.79,3,10.48,7.8,14.79,7.76Z"/>
        <path class="cls-1" d="M71.08,184.28c-8.16,4.79-20.85,3.57-29.36.24-4.26,15.43,3.74,44.22,23.1,43.27,11.22-.59,19.4-1.91,16.39-15-2-9.57-8.2-17-11-26.06Z"/>
        <path class="cls-2" d="M41.5,185c2.81.29,5.84,3.3,5.64,6.3-.13,3.29-3.86,5.07-6.56,5.88A36.61,36.61,0,0,1,41.5,185"/>
        <path class="cls-2" d="M41.07,196c2.65-.29,6.11,1.78,6.61,4.5.63,3-2.4,5.28-4.69,6.54a39.91,39.91,0,0,1-2.22-12.19Z"/>
        <path class="cls-2" d="M42.24,204.16c2-.72,5.11.24,6,2.26,1,2.2-.87,4.59-2.42,6a31.83,31.83,0,0,1-4-9.11Z"/>
        <path class="cls-3" d="M45.22,212.84c3,5.31,12.44,9.63,16.53,2.86,1.66-2.94,1-7.22.73-10.47a40.27,40.27,0,0,1,1.1-9.74c1.48-7.2,4.5-13,12.22-7.87,4.1,2.84,6.22,6.89,7.5,11.5,1.93,5.75,1.08,10.46-.32,16.14-1.76,6.78-2.83,10.06-9.9,12-5.11,1.25-12,1-16.69-1.65-3.53-2-10.08-8.3-11.08-12.49Z"/>
        <path class="cls-1" d="M179.72,147.35c8.48,3.78,21.7-1.86,29.72-5.15a96.15,96.15,0,0,0,24.09-13.65c6.61-5.65,13.23-12.25,17.72-19.55,6.62-10.37,1.68-15.8,1.93-26.42a20.21,20.21,0,0,1,.95-6.6c2.12,2.12,3.53,5.9,5.41,8.26,3.55-2.59,7.09-7.07,11.58-8.71-.25,4.48-3.32,8-4.5,12,4,1.19,7.78.25,12,.26-3.55,3.06-8.74,4-11.81,8-3.31,3.77-5.44,9.19-8,13.67-3.3,5.66-6.85,12-12.05,16.73-13,12-29.05,21.9-46,27.07-4.72,1.4-33.74,4.9-20.75-6.17Z"/>
        <path class="cls-2" d="M272.79,72.57c-1.13,1.14-9.81,6.39-4.55,8,3.4,1.14,5.41-6.25,5.13-8.52Z"/>
        <path class="cls-2" d="M280.45,84.81c-1.84.43-9.09,1.13-6.68,5,2.55,4.27,6.4-3.54,7.25-5.25Z"/>
        <path class="cls-2" d="M253.46,74.54c-.71,2.13-2.43,10.66,2.55,8,4.55-2.27-1.7-7.68-3-9Z"/>
        <path class="cls-4" d="M189.07,105c-5.83-15.85,14.09-30.08,26.48-29.7,19.5.52,24-3.62,37.75-20.76-7.44,9.89-5.63,23-12.81,34.15-7.62,12.81-20.83,19.82-14.29,35.28,5.2,11.52,4,24.88-5.12,34.32-13.67,15.34-30.92,6.51-32-11.62Z"/>
        <path class="cls-5" d="M240.33,89.37c7.18-11.15,5.37-24.26,12.81-34.15C247,62.9,242.66,68,238,71.18A42.47,42.47,0,0,1,232.87,84c-7.63,12.81-20.83,19.83-14.3,35.27,5.21,11.53,4,24.88-5.12,34.32-6.5,7.31-13.82,9.13-19.82,7.09,6.28,8,17.66,9.12,27.28-1.67,9.1-9.44,10.33-22.79,5.12-34.32-6.53-15.45,6.67-22.47,14.3-35.28"/>
        <path class="cls-1" d="M193.11,112.23c-.55-7.86,8.94-13.88,13.82-13.19,7.69,1,9.92-.76,17.3-8.43-4,4.45-4.79,10.82-8.89,15.88-4.46,5.85-10.48,8.68-9.61,16.37a18.68,18.68,0,0,1-5.85,16.29c-7.14,6.81-13,1.86-11.4-6.9Z"/>
        <path class="cls-4" d="M98.23,87.29c11.47-12.4-1.46-33.18-13-37.6C67,42.68,64.43,37.14,58.31,16c3.07,12-3.64,23.4-1.3,36.45,2.13,14.76,11.62,26.31-.34,38.07-9.24,8.64-13.23,21.44-8.46,33.65,6.73,19.42,26,17.89,34,1.55Z"/>
        <path class="cls-5" d="M56.89,53.21c-2.35-13.05,4.36-24.46,1.29-36.45C60.93,26.22,63,32.55,66,37.3a42.1,42.1,0,0,0-.14,13.78C68,65.84,77.47,77.39,65.5,89.14c-9.24,8.64-13.23,21.44-8.45,33.65C60.25,132,66.3,136.53,72.62,137c-8.85,4.93-19.81,1.64-24.54-12-4.77-12.21-.78-25,8.46-33.66,12-11.75,2.47-23.3.35-38.06"/>
        <path class="cls-1" d="M89.27,94.92c4.68-6.34-.1-16.51-4.59-18.54-7-3.24-8-6-10.08-16.4,1,5.93-1.76,11.71-1,18.18.63,7.32,4.19,12.94-.67,19A18.67,18.67,0,0,0,69.11,114c2.37,9.58,10,8.55,13.32.29Z"/>
        <path class="cls-6" d="M191.92,94.12c5.15,20.53-12.66,95.39-18.18,113.46-3.63,11.89-9.26,25-21,28.39-21.52,6.26-69.45-6.13-76.34-14.64-7.64-9.45-9.74-24-6.52-40,3.63-18,14.91-92.3,25.72-105.92,24.22-30.51,88.6-10.61,96.36,18.66"/>
        <path class="cls-7" d="M69.7,181.36c3.63-18,14.91-92.31,25.73-105.93a36.1,36.1,0,0,1,8.78-7.94C94.2,88,84.32,152.64,81,169.29c-3.21,16-1.11,30.5,6.53,39.94,6.89,8.52,54.82,20.91,76.34,14.65a20.56,20.56,0,0,0,3.86-1.58c-3.5,6.39-8.27,11.64-15.13,13.64-21.51,6.26-69.44-6.13-76.33-14.64-7.64-9.45-9.74-24-6.53-39.94"/>
        <path class="cls-8" d="M180.17,106.54c-6.34-25.37-55-43.18-81.47-25.28a22.54,22.54,0,0,1,2.33-4c22.74-29.7,82.63-10.79,89.71,17.53,4.68,19.87-12.36,92.53-17.61,110.08-3.06,10.2-7.57,21.3-16.17,26.08a79.5,79.5,0,0,0,5.6-14.32c5.25-17.55,22.29-90.21,17.61-110.08"/>
        <path class="cls-1" d="M145.12,78.06A29.69,29.69,0,1,0,179,53.21a29.69,29.69,0,0,0-33.84,24.85"/>
        <path class="cls-9" d="M150,75.89a26.7,26.7,0,1,0,30.43-22.34A26.69,26.69,0,0,0,150,75.89"/>
        <path class="cls-10" d="M155.68,63a26.7,26.7,0,0,0,40.79,32.3,27.32,27.32,0,0,0,4-4A26.7,26.7,0,1,1,155.68,63"/>
        <path class="cls-11" d="M195.45,85.21a25.83,25.83,0,0,0-21.61-29.44,26.28,26.28,0,0,0-5.44-.26A25.83,25.83,0,1,1,177.59,106a25.82,25.82,0,0,0,17.86-20.76"/>
        <path class="cls-12" d="M159.12,80.51a16.66,16.66,0,1,0,19-13.94,16.67,16.67,0,0,0-19,13.94"/>
        <path class="cls-13" d="M173.69,95.46a16.66,16.66,0,0,0,18.56-11.94,16,16,0,0,1-.19,2,16.66,16.66,0,1,1-32.51-7.06,16.65,16.65,0,0,0,14.14,16.95"/>
        <path class="cls-14" d="M177.36,71.52A15.63,15.63,0,0,0,160,82.71,15.63,15.63,0,1,1,191,85.53a16.06,16.06,0,0,1-.41,1.88,15.63,15.63,0,0,0-13.25-15.89"/>
        <path d="M164,85.63a11,11,0,1,0,12.58-9.24A11,11,0,0,0,164,85.63"/>
        <path class="cls-15" d="M178.07,83.42a6.89,6.89,0,1,0,7.86-5.77,6.89,6.89,0,0,0-7.86,5.77"/>
        <path class="cls-16" d="M176.27,78.19a3.71,3.71,0,1,0,4.22-3.1,3.71,3.71,0,0,0-4.22,3.1"/>
        <path class="cls-17" d="M160.52,85.65a2.45,2.45,0,1,0,2.79-2,2.45,2.45,0,0,0-2.79,2"/>
        <path class="cls-18" d="M160.18,83.13a1.58,1.58,0,1,0,3.13.48,1.58,1.58,0,1,0-3.13-.48"/>
        <path class="cls-1" d="M90.49,69.71a29.68,29.68,0,1,0,33.84-24.85A29.68,29.68,0,0,0,90.49,69.71"/>
        <path class="cls-9" d="M95.33,67.54A26.69,26.69,0,1,0,125.76,45.2,26.68,26.68,0,0,0,95.33,67.54"/>
        <path class="cls-10" d="M101,54.69A26.7,26.7,0,0,0,145.84,83,26.7,26.7,0,1,1,101,54.69"/>
        <path class="cls-11" d="M140.82,76.86A25.83,25.83,0,0,0,119.2,47.42a26.25,26.25,0,0,0-5.44-.26A25.83,25.83,0,1,1,123,97.61a25.84,25.84,0,0,0,17.87-20.75"/>
        <path class="cls-12" d="M104.48,72.16a16.67,16.67,0,1,0,19-13.95,16.67,16.67,0,0,0-19,13.95"/>
        <path class="cls-13" d="M119.05,87.11a16.68,16.68,0,0,0,18.57-11.94,20.09,20.09,0,0,1-.19,2,16.67,16.67,0,0,1-32.95-5,19.44,19.44,0,0,1,.44-2,16.66,16.66,0,0,0,14.13,17"/>
        <path class="cls-14" d="M122.72,63.16a15.62,15.62,0,0,0-17.4,11.2,15.62,15.62,0,1,1,31.06,2.82,16.52,16.52,0,0,1-.41,1.88,15.62,15.62,0,0,0-13.25-15.9"/>
        <path d="M109.4,77.27A11,11,0,1,0,122,68a11,11,0,0,0-12.58,9.23"/>
        <path class="cls-15" d="M123.43,75.07a6.89,6.89,0,1,0,7.86-5.77,6.89,6.89,0,0,0-7.86,5.77"/>
        <path class="cls-16" d="M121.63,69.84a3.71,3.71,0,1,0,4.23-3.11,3.7,3.7,0,0,0-4.23,3.11"/>
        <path class="cls-17" d="M105.89,77.3a2.44,2.44,0,1,0,2.79-2,2.44,2.44,0,0,0-2.79,2"/>
        <path class="cls-18" d="M105.54,74.77a1.59,1.59,0,1,0,3.14.48,1.59,1.59,0,0,0-3.14-.48"/>
        <path class="cls-19" d="M149.33,196.52a9.13,9.13,0,1,0,12.86,1,9.13,9.13,0,0,0-12.86-1"/>
        <path class="cls-19" d="M147,207.88a5.29,5.29,0,1,0,7.46.54,5.29,5.29,0,0,0-7.46-.54"/>
        <path class="cls-20" d="M183.22,122c1.48,3.78-4.49,7.66-9.16,9.72-7,2.86-19.64,3.07-29.87,2.16-20.4-1.81-43.52-11.12-45.84-20.2-.78-3.66-2.81-8.17,8.39-6.67,10.85,1.45,13,5.68,28.38,9.48,7.44,1.84,16.24,3.34,23.44,3.17,5.4-.16,20.24-2.94,24.37,2,.32.2.29.34.61.54Z"/>
        <path class="cls-21" d="M152.39,128.18c5-1,7.56-4,7.28-6.59-.21-1.93-2.19-2.25-6.25-2.3-3.13,0-6.31.13-9.62.06.78.81.29,1.49-.54,2,3,.87,1.64,2.25-.95,2.21-3.13,0-5.47-1.41-4.71-2.58.23-.27,1.13-.13,1.34-.25s-.09-.54.15-.81c.68-.72.7-.87-.66-1.47-1.72-.73-5.13-1.28-7.22-2.07s-4.1-1.81-6.54-1.67a5.08,5.08,0,0,0-3.76,2.45c-1,1.51-.41,3.35,1.48,5.18,3,2.84,9.67,4.83,15.93,6a49.83,49.83,0,0,0,5.78.78c3.48.18,5.29-.67,8.47-.85Z"/>
        <path class="cls-22" d="M143,125.24c8.66-4.39,12.23,3.11,14.54,7,3.67,5.75,5.41,7.4,9,6.63,7.15-1.53,9.65.51,15.14,4.92s8.93,5.26,14.82.65c-.48,3.16-4.1,3.51-6.4,5.75,3.27-.15,6.38.73,9.43-.1-7.6,7.27-15,9-23.28,1.62-4-3.53-5.66-5.41-11.51-5.33-5.22.17-8.63,1.27-12.85-2.94-2.83-2.71-3.47-7-6.61-9.78-3.78-2.85-13.37-3-17.2-5.52-3.51-2.48-2.36-6.56,3.37-7.95,4.73-1.22,10,2.19,11.56,5"/>
        <path class="cls-23" d="M129.47,121c-.48,1.47.12,3,1.82,4.25,3.83,2.53,13.42,2.67,17.2,5.53,3.15,2.75,3.79,7.06,6.61,9.77,4.22,4.21,7.64,3.11,12.85,2.94,5.85-.08,7.51,1.8,11.51,5.33,6.87,6.17,13.14,6,19.42,1.59l.59-.14c-7.6,7.26-15,9-23.28,1.62-4-3.54-5.65-5.41-11.51-5.34-5.21.18-8.63,1.28-12.85-2.94-2.83-2.7-3.46-7-6.61-9.77-3.78-2.85-13.37-3-17.19-5.52-3.08-2.18-2.58-5.58,1.44-7.32"/>
        <path class="cls-24" d="M165.53,119.43c-1.18,1.39-1.59,6.19-4.26,6.65-3.32.54-5.16-4.44-7.19-6a26.7,26.7,0,0,0-4.23,2.14c-2.93-2-2.46-3-6.55-1.7-2.71.8-4,2.69-6.67,3.32-1.64-2-1-4-2-6a16.17,16.17,0,0,0-4.46,1.58c-1.42-1.27-2.17-2.77-3.28-4-3.33.54-5.8,1.9-8.23,2.92-.59-2.53-.78-5.52,1.14-7.48,9.55,5.46,33.77,10.39,45.12,8.3Z"/>
    </g>
</svg>