<svg xmlns="http://www.w3.org/2000/svg" viewBox="0 0 283.46 283.46">
    <defs>
        <style>.cls-1{fill:#045ba1;}.cls-10,.cls-13,.cls-16,.cls-17,.cls-18,.cls-19,.cls-2,.cls-20,.cls-23,.cls-24,.cls-7{fill:#fff;}.cls-2{opacity:0.35;}.cls-3{fill:#2d68b2;}.cls-4{fill:#f89838;}.cls-5{fill:#1c3564;}.cls-6{fill:#ea8327;}.cls-7{opacity:0.73;}.cls-8{fill:#a0c9ec;}.cls-9{fill:#60a4da;}.cls-10{opacity:0.4;}.cls-11{fill:#faf39b;}.cls-12{fill:#c9982b;opacity:0.33;}.cls-13{opacity:0.45;}.cls-14{fill:#2f1010;}.cls-15{opacity:0.43;}.cls-16{opacity:0.5;}.cls-17{opacity:0.58;}.cls-18{opacity:0.86;}.cls-19{opacity:0.91;}.cls-20{opacity:0.81;}.cls-21{fill:#1c1042;}.cls-22{fill:#cc2027;}.cls-24{opacity:0.56;}</style>
    </defs>
    <g id="zabava">
        <path class="cls-1" d="M83.92,142.11C70.64,141,64,122.21,61.8,111.52c-1.1-7.37-1.49-19.46-1.47-29.85-.37,6.63,5.89,21,11.42,25.79-3.32-10.68-1.84-22.11,1.47-33.16a137.08,137.08,0,0,1,11.33-28c-3,7-.27,18.43,2.31,25.43,1.11-12.16,10-19.16,18.79-25.8,7.38-5.16,22.48-12.16,24.7-21.37,0,7.37,2.58,15.84,3.69,23.59,5.15-6.64,12.89-12.9,12.15-22.12,5.17,8.85,12.9,14.74,15.85,25.43,6.27-7.74,14.38-21.37,10-31.32,5.9,7.73,12.9,20.26,14.74,29.85,1.47,7.37-.74,14.74,0,22.11,4.06-1.11,10.32-4.79,11.06-8.85,1.47,8.11,7.74,14.74,9.58,23.22,1.84,7.37-.37,14-.73,21,2.57-.73,4.78-3.68,5.52-6.63-2.95,21.38-2.21,40.54-23.59,52.7-14.74,8.85-33.53,7.74-49.74,7.74-9.22,0-18.8-.37-26.91-4.42-5.16-2.21-9.58-5.9-14.37-8.48s-10.69-3-15.11-5.9Z"/>
        <path class="cls-2" d="M86.57,92.41C87.65,79.55,96.34,72.15,105,65.13c7.24-5.45,22.09-12.86,24.26-22.6,0,7.79,2.53,16.76,3.62,24.94,5.07-7,12.68-13.64,12-23.38,5.07,9.35,12.67,15.59,15.57,26.89,6.16-8.19,14.12-22.6,9.78-33.13C176,46,182.86,59.26,184.68,69.38c.32-5.24,1-10.47,0-15.72C182.88,43.54,179.75,34,174,25.77c4.34,10.52-7.37,21.27-13.53,29.45-2.9-11.29-10.5-17.53-15.57-26.88.73,9.74-6.88,16.37-12,23.38-1.09-8.18-3.62-17.15-3.62-24.94-2.17,9.74-17,17.15-24.26,22.6-8.69,7-17.38,14.42-18.46,27.28A71.16,71.16,0,0,1,83.93,66.6c-2.28,7.46.22,18.75,2.64,25.81"/>
        <path class="cls-3" d="M164,140.89c8.34,1.78,19.13-5.8,25.71-10.29a88,88,0,0,0,19-16.84c4.86-6.33,9.54-13.51,12.18-20.93,4-10.57-1.5-14.51-3.3-24.09a19,19,0,0,1-.41-6.11c2.31,1.51,4.3,4.63,6.44,6.39,2.69-3,5-7.69,8.73-10,.64,4.07-1.45,7.83-1.74,11.65,3.82.3,7-1.26,10.84-2.07-2.6,3.43-7.08,5.26-9.07,9.44-2.26,4-3.13,9.29-4.62,13.81-1.89,5.71-3.87,12.1-7.64,17.31-9.37,13.26-21.91,25.2-36.17,33.07-4,2.16-29.36,10.84-19.81-1.58Z"/>
        <path class="cls-4" d="M233.28,56c-.8,1.23-7.6,7.6-2.58,8,3.27.37,3.67-6.64,3-8.63Z"/>
        <path class="cls-4" d="M242.05,65.61c-1.58.73-8,2.74-5.06,5.73,3.1,3.35,5.07-4.4,5.51-6.09Z"/>
        <path class="cls-4" d="M216.3,61.47c-.24,2.05-.16,10,3.8,6.67,3.65-2.91-3-6.57-4.38-7.48Z"/>
        <path class="cls-3" d="M105.58,142c-8.49.89-18.42-7.8-24.48-12.95A88.5,88.5,0,0,1,64,110.29c-4.16-6.81-8-14.45-9.89-22.11-2.83-10.93,3-14.26,5.84-23.59a18.82,18.82,0,0,0,1-6c-2.46,1.26-4.76,4.14-7.08,5.67C51.53,61,49.72,56,46.27,53.32c-1.06,4,.61,7.94.5,11.78-3.83-.11-6.86-2-10.57-3.2,2.23,3.67,6.49,6,8,10.34,1.82,4.23,2.13,9.57,3.13,14.22,1.27,5.88,2.56,12.44,5.75,18,7.91,14.18,19.11,27.37,32.46,36.72,3.72,2.57,28.05,13.88,19.86.53Z"/>
        <path class="cls-4" d="M45.65,50.27c.66,1.32,6.74,8.37,1.71,8.24-3.3,0-2.94-7-2-8.9Z"/>
        <path class="cls-4" d="M35.48,58.77c1.49.9,7.62,3.57,4.42,6.23-3.44,3-4.57-4.91-4.84-6.64Z"/>
        <path class="cls-4" d="M62,57.49c0,2.06-.91,10-4.49,6.22-3.33-3.27,3.66-6.22,5.14-7Z"/>
        <path class="cls-3" d="M104,232.65c4.06,1.89,6.5,8.39,6.76,12.46-7-1.36-13.8-3.25-21.37-2.44-8.39,1.08-16.24,9.47-4.06,12.72,8.12,2.16,19.48,1.07,27.87.27,3.79-.27,8.12-1.36,12.18-.55-3.79-7.57-14.34-10.28-11.91-21.1Z"/>
        <path class="cls-5" d="M113.47,234.13l-.27,0a24.56,24.56,0,0,1-3.41-.49l-2-.29a5.85,5.85,0,0,0-2.28.2c.16.21.32.43.47.65a12.29,12.29,0,0,1,1.72,2.09l.29.2c.91.45,2.83,0,3.5.67.45.46.9,2.83,1.24,3.51.46,1.23,1.13,2.47,1.7,3.72.78,1.58,2.48,6.54,1.35,8.12-.79,1.24-4,.9-5.31,1-3.83.23-7.67.69-11.39.57-2.48-.11-5.19.12-7.56-.68-3.16-.9-3.38-5.07-7.56-3.61l-.22-.34a11.92,11.92,0,0,0-2,4.7,15.48,15.48,0,0,0,3.56,1.38c8.12,2.16,19.48,1.08,27.87.27,3.79-.27,8.12-1.35,12.18-.54-3.79-7.58-14.34-10.29-11.91-21.11"/>
        <path class="cls-6" d="M80.49,249.8c3.78-1.62,7.82,3.24,3.49,4.86-3,1.09-7-3.52-9.2.54,1.08-3.51,3.24-5.68,7-5.41Z"/>
        <path class="cls-3" d="M176,232.59c-4.05,1.89-6.49,8.39-6.76,12.45,7-1.35,13.8-3.25,21.38-2.44,8.39,1.09,16.24,9.47,4.06,12.72-8.12,2.17-19.49,1.08-27.87.27-3.79-.27-8.12-1.35-12.18-.54,3.78-7.58,14.34-10.28,11.9-21.11Z"/>
        <path class="cls-5" d="M166.49,234.07l.28,0a22.05,22.05,0,0,0,3.41-.49l2-.28a5.63,5.63,0,0,1,2.28.2c-.16.21-.31.42-.46.65a11.68,11.68,0,0,0-1.72,2.08,2.73,2.73,0,0,1-.3.21c-.9.45-2.82,0-3.5.67-.45.45-.9,2.82-1.24,3.5-.45,1.24-1.13,2.48-1.69,3.72-.79,1.58-2.49,6.55-1.35,8.13.78,1.24,3.94.9,5.3,1,3.83.23,7.67.68,11.39.57,2.49-.11,5.19.11,7.56-.68,3.16-.9,3.38-5.08,7.57-3.61l.22-.34a11.7,11.7,0,0,1,2,4.7,15.2,15.2,0,0,1-3.55,1.38c-8.12,2.16-19.49,1.08-27.87.27-3.8-.27-8.12-1.36-12.18-.54,3.78-7.58,14.34-10.29,11.9-21.11"/>
        <path class="cls-4" d="M199.53,246.69c-2.72-1.17-5.63,2.32-2.51,3.49,2.14.78,5-2.53,6.61.39-.78-2.53-2.33-4.09-5-3.89Z"/>
        <path class="cls-6" d="M199.48,249.74c-3.79-1.63-7.82,3.24-3.49,4.86,3,1.08,7-3.52,9.2.54-1.09-3.51-3.25-5.68-7-5.41Z"/>
        <path class="cls-7" d="M196.22,250.83c1.24-2.26,5.18-.11,6.32,1.46-1.36-.67-6.44-2.59-6.54.23a1.94,1.94,0,0,1,.33-1.92Z"/>
        <path class="cls-7" d="M196.78,247.89a3.16,3.16,0,0,1,4.85.45,4.47,4.47,0,0,0-4.74.23,1,1,0,0,1,0-.79Z"/>
        <path class="cls-8" d="M102.17,227.61c8.79,20,62.81,20.83,74.8,3.68,12.59-18,29.53-81.25,23.77-114.32C195.61,87.6,160,86.33,135.31,86.33c-34.9,0-88.44,15.3-33.14,141.28"/>
        <path class="cls-9" d="M176.42,231.83c-2.78,4-7.82,7-14,9,.1-.14.21-.27.3-.41,12.6-18,29.54-81.25,23.77-114.33C181.32,96.75,145.71,95.47,121,95.48c-9.14,0-19.54,1-28.95,4.86,11.77-11,28.72-13.46,42.69-13.47,24.67,0,60.29,1.27,65.42,30.63C206,150.57,189,213.82,176.42,231.83"/>
        <path class="cls-10" d="M115.5,219.67c6.74,15.37,40.17,19.41,60.75,12.7-12.54,16.72-65.78,15.76-74.49-4.1-40.83-93-22.33-125.67,4.2-136.41-17.64,16.51-23.63,52.25,9.54,127.81"/>
        <path class="cls-11" d="M134.27,95.2a23.51,23.51,0,1,1-23.51-23.51A23.51,23.51,0,0,1,134.27,95.2"/>
        <path class="cls-12" d="M131,83.25a23.52,23.52,0,0,1-39.83,22.67,23.28,23.28,0,0,1-3-4,23.23,23.23,0,0,0,5.23,9.18A23.51,23.51,0,0,0,131,83.25"/>
        <path class="cls-13" d="M93.43,97.24A22.75,22.75,0,0,1,116.18,74.5a23.36,23.36,0,0,1,4.76.5,22.75,22.75,0,1,0-14.73,42.69A22.75,22.75,0,0,1,93.43,97.24"/>
        <path class="cls-14" d="M125.44,97a14.68,14.68,0,1,1-14.68-14.67A14.68,14.68,0,0,1,125.44,97"/>
        <path class="cls-15" d="M110.76,108.07A14.68,14.68,0,0,1,96.2,95.2a13.39,13.39,0,0,0-.11,1.8,14.68,14.68,0,1,0,29.35,0,13.38,13.38,0,0,0-.12-1.8,14.66,14.66,0,0,1-14.56,12.87"/>
        <path class="cls-16" d="M110.76,86.74A13.76,13.76,0,0,1,124.42,98.8a15.5,15.5,0,0,0,.1-1.69,13.76,13.76,0,1,0-27.52,0,13.33,13.33,0,0,0,.11,1.69,13.75,13.75,0,0,1,13.65-12.06"/>
        <path d="M120.49,100.8a9.73,9.73,0,1,1-9.73-9.72,9.73,9.73,0,0,1,9.73,9.72"/>
        <path class="cls-17" d="M108.56,97a6.07,6.07,0,1,1-6.08-6.07A6.08,6.08,0,0,1,108.56,97"/>
        <path class="cls-18" d="M110.82,92.69a3.27,3.27,0,1,1-3.26-3.27,3.26,3.26,0,0,1,3.26,3.27"/>
        <path class="cls-19" d="M123.16,106.31a2.16,2.16,0,1,1-2.16-2.15,2.16,2.16,0,0,1,2.16,2.15"/>
        <path class="cls-20" d="M123.8,104.16a1.4,1.4,0,1,1-1.4-1.4,1.4,1.4,0,0,1,1.4,1.4"/>
        <path class="cls-9" d="M136.67,94.74s-6.55-5.32-26.76-4.63c-17.53.6-24.87,7.06-25,4.63-.93-12.41,11.59-24.39,25.9-24.39s25.91,10.92,25.91,24.39"/>
        <path class="cls-9" d="M134.75,101s-4.12,4.48-24.33,4c-17.52-.45-23-5.61-23.17-3.75-.92,9.5,6.51,19.71,24,18.88,28.55-1.35,23.47-21.88,23.47-19.08"/>
        <path class="cls-8" d="M85.94,100.35c-2.46,6.9,14.46,13.47,39.5,8.5,2.1-.41,11.76-5.38,10.61-7.52-1.31-2.46-4.6-.33-6.57.33a54.9,54.9,0,0,1-11.83,2.3c-26.46,2-28.09-4.6-31.87-4.27Z"/>
        <path class="cls-8" d="M84.4,95.73c-2.59-6.9,13.81-14.29,45.78-7.69,2.2.45,8.09,4.57,6.88,6.7-1.38,2.47-4.83.33-6.9-.32a60.38,60.38,0,0,0-12.43-2.3c-27.81-2-29.53,4.59-33.5,4.27Z"/>
        <path class="cls-11" d="M186.35,94.68a23.51,23.51,0,1,1-23.51-23.51,23.52,23.52,0,0,1,23.51,23.51"/>
        <path class="cls-12" d="M183.09,82.73a23.51,23.51,0,0,1-42.77,18.69,23.23,23.23,0,0,0,5.23,9.18,23.51,23.51,0,0,0,37.54-27.87"/>
        <path class="cls-13" d="M145.51,96.72A22.76,22.76,0,0,1,173,74.48a22.75,22.75,0,1,0-14.73,42.69,22.73,22.73,0,0,1-12.78-20.45"/>
        <path class="cls-14" d="M177.51,96.48A14.68,14.68,0,1,1,162.84,81.8a14.67,14.67,0,0,1,14.67,14.68"/>
        <path class="cls-15" d="M162.84,107.55a14.66,14.66,0,0,1-14.56-12.87,13.38,13.38,0,0,0-.12,1.8,14.68,14.68,0,1,0,29.35,0,15.27,15.27,0,0,0-.1-1.8,14.68,14.68,0,0,1-14.57,12.87"/>
        <path class="cls-16" d="M162.84,86.21a13.75,13.75,0,0,1,13.65,12.07,13.45,13.45,0,0,0,.11-1.69,13.76,13.76,0,1,0-27.52,0,13.45,13.45,0,0,0,.11,1.69,13.75,13.75,0,0,1,13.65-12.07"/>
        <path d="M172.56,100.28a9.72,9.72,0,1,1-9.72-9.72,9.72,9.72,0,0,1,9.72,9.72"/>
        <path class="cls-17" d="M160.63,96.48a6.07,6.07,0,1,1-6.06-6.07,6.07,6.07,0,0,1,6.06,6.07"/>
        <path class="cls-18" d="M162.9,92.17a3.27,3.27,0,1,1-3.27-3.27,3.27,3.27,0,0,1,3.27,3.27"/>
        <path class="cls-19" d="M175.23,105.79a2.15,2.15,0,1,1-2.15-2.15,2.15,2.15,0,0,1,2.15,2.15"/>
        <path class="cls-20" d="M175.88,103.64a1.4,1.4,0,1,1-1.4-1.4,1.4,1.4,0,0,1,1.4,1.4"/>
        <path class="cls-9" d="M188.74,94.22S182.2,88.9,162,89.59c-17.52.59-24.87,7.06-25,4.63-.92-12.42,11.6-24.39,25.91-24.39s25.9,10.92,25.9,24.39"/>
        <path class="cls-9" d="M186.83,100.46s-4.13,4.48-24.33,4c-17.52-.45-23-5.62-23.17-3.76-.92,9.51,6.5,19.72,24,18.89,28.56-1.35,23.48-21.88,23.48-19.08"/>
        <path class="cls-8" d="M138,99.82c-2.46,6.9,14.46,13.47,39.49,8.52,2.1-.42,11.77-5.4,10.62-7.53-1.31-2.47-4.6-.33-6.57.33a54.9,54.9,0,0,1-11.83,2.3c-26.46,2-28.09-4.6-31.87-4.27Z"/>
        <path class="cls-8" d="M136.48,95.21c-2.59-6.9,13.81-14.29,45.78-7.7,2.2.46,8.09,4.58,6.88,6.71-1.38,2.47-4.83.33-6.9-.33a60.5,60.5,0,0,0-12.43-2.3c-27.81-2-29.54,4.6-33.5,4.28Z"/>
        <path class="cls-10" d="M120.49,193.75A11.49,11.49,0,1,0,109,205.23a11.48,11.48,0,0,0,11.49-11.48"/>
        <path class="cls-10" d="M110.42,180a5.53,5.53,0,1,0-5.48,5.59,5.54,5.54,0,0,0,5.48-5.59"/>
        <path class="cls-5" d="M100.36,132.24c-1.81,7.25,2.63,17.16,6.26,22.9,5.44,8.15,16.09,12.74,24.86,14.25,17.47,3,38.36-8.45,41.68-26.28,1.21-7.25,3.59-15.81-6.07-16.41-9.36-.61-11.83,7.35-25.35,10.07-6.55,1.32-14.19,1.51-20.23-1.21-4.54-2.12-16.62-12.69-20.85-3.93-.3.31-.3.61-.6.91Z"/>
        <path class="cls-21" d="M125.42,155.07c-4-3.58-5.77-10.75-5.14-15.89.47-3.89,2.18-3.89,5.6-2.65,2.65.94,5.3,2.34,8.11,3.28a4.43,4.43,0,0,0,.15,4.2c-2.64.78-1.71,4.05.47,4.83A3.2,3.2,0,0,0,139,145.1c-.16-.62-.93-.62-1.09-.93-.15-.62.16-1.09,0-1.72-.47-1.71-.47-2,.78-2.8,1.56-.94,4.52-.94,6.39-1.87,1.87-.78,3.73-2.34,5.77-1.25,1.71,1.09,2.49,4.37,2.8,6.24a14.66,14.66,0,0,1-2,10.12c-3,4.83-8.88,6.7-14.33,7a18.22,18.22,0,0,1-5-.31c-3-.78-4.36-3.11-7-4.52Z"/>
        <path class="cls-22" d="M135.63,156.18a12.05,12.05,0,0,0-11.22-1.56c-3.74,1.56-5.92,5.77-7.32,9.35l-.29.08a45.74,45.74,0,0,0,15.27,5.53c9.21,1.59,19.38-.85,27.41-6.12.37-1.16-.27-1.89-1.41-3.38-5.45-6.86-14.65-10.91-22.44-3.9"/>
        <path class="cls-23" d="M116.29,132.76c.93,2.6.93,5.94,2.41,8.36.74,1.3,5.39,4.27,7.25,2.6.74-.74,1.3-5.39-.93-6.51-2.23-1.29-5.37-2.68-8.36-4.64Z"/>
        <path class="cls-23" d="M144.28,136.75c.74,4.65,0,8,4.89,6.42,4.12-1.32,5.45-7.32,4.53-11.22-3,1.48-5.76,3.51-9.42,4.62Z"/>
        <path class="cls-23" d="M130.06,169.39c0-2.41-4.77-12.32,3.7-11.5,3.52.33,3.27,9.53,3.27,12.13-2.23,0-4.93.3-7-.63"/>
        <path class="cls-23" d="M144.86,169.25c0-2.41,2.88-10.38-2.23-11.51-7-1.56-4.83,9.84-4.83,12.45,2.22,0,5,0,7.06-.94"/>
        <path class="cls-24" d="M120.15,159.9c.63-6.85,11.84-6.23,15.74-3,3.43-5.14,14.33-4.67,16.67,1.41-2.65-4.52-13.71-3.59-16.51.46-3.89-3.11-13.09-5.14-15.58,1.09Z"/>
    </g>
</svg>