<svg id="Layer_1" data-name="Layer 1" xmlns="http://www.w3.org/2000/svg" viewBox="0 0 1080 1080"><defs><style>.cls-1{fill:#0072af;}.cls-2{fill:#a9ceeb;}.cls-3{fill:#5faddb;}.cls-4{fill:#abc55f;}.cls-5{fill:#231f20;}</style></defs><polygon class="cls-1" points="854.12 676.12 696.2 616.66 696.2 378.67 739.13 364.47 854.12 415.23 854.12 676.12"/><polygon class="cls-1" points="234.86 676.12 392.77 616.66 392.77 378.67 349.84 364.47 234.86 415.23 234.86 676.12"/><polygon class="cls-2" points="390.59 608.46 243.06 660.11 234.86 763.46 390.59 743.1 390.59 608.46"/><polygon class="cls-2" points="687.48 608.46 835.01 660.11 843.21 763.46 687.48 743.1 687.48 608.46"/><polygon class="cls-2" points="396.87 743.1 686.48 743.1 684.6 543.67 541.67 473.81 390.59 549.49 396.87 743.1"/><polygon class="cls-3" points="397.92 563.98 545.76 512.72 684.7 563.98 684.7 248.57 541.31 187.08 397.92 252.21 397.92 563.98"/><path class="cls-4" d="M141.61,786.37c348-72,462-83,787.6,0-8.54,18.46-107.48,168.85-296.25,197S286,977.4,141.61,786.37Z"/><path d="M1029.71,514.12c-1.72,135.59-49,252.63-145.64,348.12C789,956.19,673,1003.88,539.71,1004c-134.44.06-251.15-48.58-346.3-143.73-95.93-95.93-144-213.29-143.24-349.14C50.91,377.29,99.57,262,193.92,167.67,289.59,72.07,407,23.63,542.19,24.35c134.07.72,249.75,49.88,345,144.66C975.74,257.15,1030.52,381.35,1029.71,514.12ZM927.37,772.39C1046,603,1042,326.23,836.76,155,648-2.66,356.43,10.43,183.37,213.91,128.47,278.46,94,353,79.83,436.53,67.05,511.72,72.89,585.74,96,658.37c15,47.1,46.41,105.13,57.3,114,22.88-6.69,46.38-12.28,69.72-17.79,1.71-4,1-7.75,1-11.37q.07-158.93,0-317.86a54.75,54.75,0,0,1,.15-8.31c1.23-8,4.44-14.58,13.08-17.23,4.68-1.44,9.11-3.65,13.67-5.49q46.1-18.61,92.19-37.24c9.28-3.76,18.33-4.24,27.63.09,2.65,1.24,5.43,3.05,8.86,2.37,2-3.06,1-6.54,1-9.82.09-32.34.15-64.68,0-97,0-9.42,3.67-15.37,12.69-19,23.31-9.47,46.37-19.58,69.53-29.44q31.33-13.35,62.67-26.74c9.15-3.93,18.17-4.45,27.51-.47q66.07,28.17,132.27,56c9.47,3.95,13.68,9.89,13.54,20.38-.43,32-.19,64.07-.11,96.1,0,3.3-.87,6.76,1.36,10.65,4.48-1.52,9-3.12,13.61-4.6a28.32,28.32,0,0,1,19.79.41q55.06,22.18,110.13,44.39c7.43,3,10.81,8.69,11.76,16.18a58.57,58.57,0,0,1,.06,7.38q0,159.87,0,319.72c0,3.6-.53,7.3.76,11.13C880.46,759.47,903.92,766.41,927.37,772.39ZM510.42,376.69c2-.73,10.25-4.06,15.95-4.2a9.42,9.42,0,0,1,8.24,5,11.62,11.62,0,0,1-5.72,16.85c-2,.83-4.06,1.38-6.08,2.09Q466.91,416.34,411,436.25c-2.81,1-6,1.54-7.65,4V727.73c11.79-.61,23.06-1.62,34.27-2.42s22.7-1.16,34.06-1.61,22.69-1.17,34-1.45,22.79-.18,34.18-.18,22.79-.09,34.18.18,22.69,1,34,1.46,22.7.38,34,1.69c11.12,1.29,22.38,1.37,34.18,2V271.89c0-1.85,0-3.7,0-5.55,0-7.54-3.64-12.79-10.19-16.19-1.63-.85-3.34-1.56-5-2.28q-54.24-23-108.47-46.05c-8.37-3.58-16.33-4-24.89-.3-37.52,16.06-75.18,31.81-112.78,47.69-8.31,3.51-12.11,10-12.13,18.86q0,24.48,0,49c0,1.8-.42,3.73.89,5.06,2.13,1.32,3.71,0,5.39-.63q34.68-12.27,69.35-24.58c15-5.35,25.12-9.13,40.13-14.5,4.52-1.61,9-2.24,13,1.19a14.1,14.1,0,0,1,4.6,9.34c-1.09,6.69-5.19,9.37-11,11.29C487.13,316.81,454,328.11,415.93,341c-4.31,1.46-8.8,2.61-12.55,5.73v66.71c0,1-.05,1.26.13,1.46s.52-.12,1.53-.5c2.62-1,7.65-2.87,10.11-3.74q47.67-16.86,95.27-33.92M165.48,792.5c60.39,79.23,136.44,134.29,229.72,164.79,104.7,34.23,209,31.4,311.75-8,83.51-32,152.21-84.14,206.07-155.48-1.6-2.29-3.58-2.59-5.24-3q-44.44-12-89.65-20.75c-28.92-5.56-58-9.86-87.29-13.59-20.71-2.64-41.51-4.29-62.26-6.53-18-1.94-36.12-2.76-54.21-3.62-22.11-1.06-44.27-.42-66.4-1.79-10.7-.67-21.49.6-32.21.78-31.37.54-62.68,1.71-94,3.94-16.86,1.2-33.69,2.86-50.48,4.51-21.36,2.1-42.63,5.22-63.88,8.44-32.79,4.95-65.25,11.49-97.54,19C195.56,784.47,181.39,788.41,165.48,792.5ZM735.39,446.91c5-1.09,9.34-.16,13.8,1.5q34,12.68,68.24,25c4.47,1.62,8.76,4,13.57,4.25,1.8-2.58,1.08-5.12,1.09-7.49.1-11.39-.41-22.81.17-34.17.62-12-5.41-18-14.86-21.52-10.64-3.93-21-8.52-31.57-12.77q-25.61-10.32-51.23-20.58c-5.19-2.09-10.57-3.86-16.14-2.43-6.78,1.74-13.52,3.83-19.21,7.66-1.49,15.71-.92,336.14.73,343.54,43.79,4.6,87.63,10.9,131.12,19.46,1.29-8.17,1.44-161.39.26-170.81a49,49,0,0,0-4.7-2.28q-38.45-14.07-76.91-28.06c-3.74-1.37-7.59-2.5-11.21-4.14a10.82,10.82,0,0,1-6.33-12.9c1.55-6.08,5.95-9.15,12.29-8.69,3.46.25,6.48,1.83,9.63,3q35,12.75,70,25.59c2.43.88,4.8,2.18,7.67,1.86V504.3a5.35,5.35,0,0,0-3.5-2.56c-29.65-10.9-59.24-21.95-89-32.61-5.78-2.07-9.95-4.69-10.46-12.16C729.89,453.82,730.25,449.3,735.39,446.91Zm-354.93-60.3c-11.53-6.73-23.08-11.08-37-5.15C316,393.09,288.31,403.94,260.68,415c-9.43,3.78-13.86,10.34-13.51,20.66.39,11.69,0,23.4.13,35.11,0,2.36-.81,5,1.52,7.4,18.82-6.85,37.82-13.76,56.81-20.69,9.8-3.57,19.53-7.35,29.4-10.7,5.93-2,10.79-.2,13.64,4.32,4.84,7.63.31,15.08-6.85,17.54C323.26,475,304.9,482,286.46,488.77l-38.7,14.17V552.6a2.71,2.71,0,0,0,3,.19c25.91-9.51,51.85-18.95,77.74-28.54,4.16-1.55,8.19-2.49,12.45-1.28,10,8.88,8.69,17.53-3.21,22.31-.57.23-1.13.49-1.71.71q-40.62,14.84-81.25,29.63c-2.59.94-5.25,1.58-7.19,3.55-1.33,22.63-.73,162.45.77,170.12,7.46-1.35,14.92-2.77,22.4-4,16.62-2.8,33.19-6,49.89-8.17,17-2.25,34-5,51.19-6.08,2.93-.18,6.13-.46,8.59-2.91Z"/><path d="M368.15,784.66V764.35L399.39,776l30.39-11.49v20s-18.11,7.47-27.48,11.07c-2.39.91-4.82.42-7.18-.51C386.27,791.65,368.15,784.66,368.15,784.66Z"/><path class="cls-5" d="M397.39,885.54q16.14,0,21.35-1.44c2.5-.72,3.76-2,3.76-3.94s-1.19-3.29-3.59-4.13q-5.19-1.62-21.52-2.15-41.43-1.26-55.95-9.69-12.21-7.17-12.2-25.29,0-17.39,14.34-25.29,16.16-8.77,53.81-8.78,37.5,0,52.91,10.22,13.45,9,13.45,29.24h-43q0-5.38-4.13-7.18-4.49-1.79-19.19-1.79-16.14,0-21.34,1.44c-2.51.71-3.76,2-3.76,3.94s1.25,3,3.76,3.59q4.65,1.26,21.34,1.79,41.43,1.62,55.79,9.87,12.36,7,12.37,25.1,0,17.4-14.35,25.65Q434.88,916,397.39,916q-37.84,0-53.81-10.23-14.34-9.15-14.34-29.23h43.05q0,5.56,3.94,7.17Q380.9,885.54,397.39,885.54Z"/><path class="cls-5" d="M541.31,886.83q16.28,0,21.52-1.45c2.54-.73,3.8-2,3.8-4s-1.2-3.32-3.61-4.16q-5.26-1.63-21.71-2.17-41.79-1.27-56.44-9.77-12.31-7.23-12.3-25.51,0-17.53,14.47-25.5,16.27-8.87,54.27-8.87,37.8,0,53.36,10.32,13.56,9,13.57,29.48H564.82c0-3.61-1.38-6-4.15-7.23q-4.53-1.82-19.36-1.81-16.29,0-21.53,1.45-3.79,1.08-3.8,4c0,1.8,1.27,3,3.8,3.61q4.71,1.28,21.53,1.81,41.79,1.63,56.25,10,12.5,7,12.48,25.32,0,17.55-14.47,25.87-16.46,9.41-54.26,9.41-38.17,0-54.27-10.31-14.48-9.24-14.47-29.49H516q0,5.61,4,7.24Q524.67,886.82,541.31,886.83Z"/><path class="cls-5" d="M684.17,886.83q16.29,0,21.53-1.45c2.53-.73,3.8-2,3.8-4s-1.21-3.32-3.62-4.16q-5.25-1.63-21.71-2.17-41.77-1.27-56.44-9.77-12.3-7.23-12.3-25.51,0-17.53,14.47-25.5,16.29-8.87,54.27-8.87,37.8,0,53.36,10.32,13.58,9,13.57,29.48H707.68c0-3.61-1.38-6-4.15-7.23q-4.53-1.82-19.36-1.81-16.29,0-21.52,1.45-3.81,1.08-3.81,4c0,1.8,1.27,3,3.81,3.61q4.7,1.28,21.52,1.81,41.79,1.63,56.26,10,12.48,7,12.48,25.32,0,17.55-14.47,25.87-16.47,9.41-54.27,9.41-38.17,0-54.27-10.31-14.46-9.24-14.47-29.49h43.41q0,5.61,4,7.24Q667.53,886.82,684.17,886.83Z"/><path class="cls-5" d="M41.28,706.83l-.7.25a15,15,0,0,1-3.89.85,9.9,9.9,0,0,1-4-.69,12.09,12.09,0,0,1-4.22-2.77,26.82,26.82,0,0,1-4.17-5.78,57.88,57.88,0,0,1-4.11-9.31l-1.23-3.51a47,47,0,0,1-2.52-10.18,24.41,24.41,0,0,1,0-7.32,12.24,12.24,0,0,1,2-4.8,11.43,11.43,0,0,1,2.91-3,15.1,15.1,0,0,1,3.2-1.56l.56-.19,4.35,12.34q-5.82,2.5-2,13.32l.24.71A46.61,46.61,0,0,0,30.15,691a10.8,10.8,0,0,0,2.14,3.07,3.83,3.83,0,0,0,1.73,1,3.17,3.17,0,0,0,1.62-.17,3,3,0,0,0,1.71-1.28,6.08,6.08,0,0,0,.24-3.28,34.74,34.74,0,0,0-1.65-6.68l-2.14-6.55q-6-18.62,4.52-22.32l.46-.16a12.43,12.43,0,0,1,3.52-.73,8.74,8.74,0,0,1,3.73.74,11.81,11.81,0,0,1,3.86,2.66,24.73,24.73,0,0,1,3.85,5.35,52.4,52.4,0,0,1,3.77,8.5l1.24,3.5A56.19,56.19,0,0,1,61.26,684a27.19,27.19,0,0,1,.41,7,13,13,0,0,1-1.37,4.82A9.94,9.94,0,0,1,57.82,699a10.91,10.91,0,0,1-3.22,1.77l-.5.18-4.34-12.29a5,5,0,0,0,.94-.65,4.32,4.32,0,0,0,.84-1.24,5.19,5.19,0,0,0,.56-2.13,15.84,15.84,0,0,0-.31-3.46,31.42,31.42,0,0,0-1.38-5l-.28-.81A32.85,32.85,0,0,0,47.28,669c-.89-1.4-1.58-2.2-2.09-2.38a2.57,2.57,0,0,0-1.76.08,2.45,2.45,0,0,0-1.38,1.09,5.75,5.75,0,0,0-.22,2.93,27.59,27.59,0,0,0,1.45,5.85l2.13,6.39Q49,693.57,47.94,699.2A9.42,9.42,0,0,1,41.28,706.83Zm19.07-41.45,4.71-10.79,4,11.17-1.76,4.38,4.1,2.27,3.89,11-10.39-5.3Z"/><path class="cls-5" d="M64,721l-7.44-15.85,8-3.76,20.37,43.39-8,3.75-7.47-15.89-25.8,12.11-5.47-11.64Z"/><path class="cls-5" d="M113,791.45l-15.39,9.26a20.89,20.89,0,0,1-4.35,1.95,18.42,18.42,0,0,1-5.57.72,18.86,18.86,0,0,1-6.38-1.19,21.7,21.7,0,0,1-6.71-4.39A36.91,36.91,0,0,1,68,789.48l-1-1.68a44.89,44.89,0,0,1-3.64-7.44,28.42,28.42,0,0,1-1.6-6.38,19.53,19.53,0,0,1,.15-5.37,16.87,16.87,0,0,1,1.34-4.43,17.93,17.93,0,0,1,2.23-3.53,18.42,18.42,0,0,1,2.61-2.71A21.75,21.75,0,0,1,70.77,756l15.39-9.26,6.58,10.93-14.8,8.9a11.54,11.54,0,0,0-2.88,2.4,10.79,10.79,0,0,0-1.9,3.4,9,9,0,0,0-.12,4.93,20.61,20.61,0,0,0,2.64,6.27,19.82,19.82,0,0,0,4.25,5.17A9.17,9.17,0,0,0,84.32,791a10.38,10.38,0,0,0,3.91-.07,11.52,11.52,0,0,0,3.47-1.42l14.8-8.89Z"/><path class="cls-5" d="M132,816.93a68.6,68.6,0,0,1,5.71,8.6,31.47,31.47,0,0,1,3,7.33,26.06,26.06,0,0,1,.85,6,12,12,0,0,1-.9,4.9,17.61,17.61,0,0,1-2.19,3.78,16.45,16.45,0,0,1-3.06,3l-1.19.92A18.68,18.68,0,0,1,129.9,854a14.32,14.32,0,0,1-5.43.88,16.87,16.87,0,0,1-6.45-1.38,29.9,29.9,0,0,1-7.38-4.83,57.13,57.13,0,0,1-8.28-8.91L85.89,818.24l29.67-22.75Zm-31.2,6,8.07,10.52q10,13,17.62,7.13l.24-.18q7.62-5.83-2.35-18.84L116.31,811Z"/><path class="cls-5" d="M181.65,873.38l-6.17,5.85L154.6,857.15l-4,3.8L171,882.51l-6.22,5.88-20.38-21.57L139.9,871l21.26,22.48-6.33,6L124.9,867.85l27.21-25.71Z"/><path class="cls-5" d="M195.74,886.32l4.38,34.73,15.31-17.79,9.54,8.2-24.35,28.29-9.53-8.2-4.8-36.76-16.13,18.74-9.54-8.2L185,877Z"/><path class="cls-5" d="M236.18,930,221.8,920l5-7.26,39.37,27.34-5,7.26-14.44-10-16.25,23.42-10.57-7.34Z"/><path class="cls-5" d="M260.69,979.61a26.22,26.22,0,0,1-5-5.43,12.19,12.19,0,0,1-1.82-4.77,10.62,10.62,0,0,1,.08-4,12.83,12.83,0,0,1,1.25-3.1l.27-.48,11.63,6.47c-1.67,3.6-.12,6.72,6.67,10.5l2.59,1.44a34,34,0,0,0,4.8,2.3,11.41,11.41,0,0,0,3.66,1,3.82,3.82,0,0,0,1.94-.32,2.89,2.89,0,0,0,1.05-1.11,2.67,2.67,0,0,0,.35-2,6.39,6.39,0,0,0-2.07-2.57,40.69,40.69,0,0,0-5.77-3.93l-3.47-2-2.59-1.52q-17.12-10.11-12-19.23l.23-.39a10.85,10.85,0,0,1,2.05-2.68,8,8,0,0,1,3.21-1.72,12.16,12.16,0,0,1,4.64-.38,27.64,27.64,0,0,1,6.46,1.61,58,58,0,0,1,8.56,4l3.3,1.84a60.09,60.09,0,0,1,8.26,5.41,29.71,29.71,0,0,1,5.08,4.89,13.4,13.4,0,0,1,2.32,4.4,9.11,9.11,0,0,1,.38,3.86,9.37,9.37,0,0,1-1.12,3.26l-.24.43-11.58-6.44a4.85,4.85,0,0,0,.24-1.05,4.47,4.47,0,0,0-.24-1.43,5.64,5.64,0,0,0-1.06-1.91,17.35,17.35,0,0,0-2.61-2.36,26.74,26.74,0,0,0-3.91-2.59l-1.67-.92a30.53,30.53,0,0,0-6.05-2.77,6.59,6.59,0,0,0-3.15-.49,2.28,2.28,0,0,0-1.22,1.13,2.16,2.16,0,0,0-.26,1.64,6.14,6.14,0,0,0,1.85,2.3,30.85,30.85,0,0,0,5.07,3.45l2.6,1.49,3.33,1.93q9.85,5.71,13,10.48a8.7,8.7,0,0,1,.4,9.68l-.34.61a12.71,12.71,0,0,1-2.22,3,9.13,9.13,0,0,1-3.39,1.93,12.15,12.15,0,0,1-5,.52,29.3,29.3,0,0,1-7-1.74,63.67,63.67,0,0,1-9.37-4.38l-3.3-1.84A52.54,52.54,0,0,1,260.69,979.61Z"/><path class="cls-5" d="M320.36,994.9l-3.56-1.55-5.57,12.83-10.67-4.62,14.72-33.91L326,972.28l-4.72,10.86,4,1.75,18.13-5,13.55,5.88-26.32,7L343.13,1020l-13.91-6Z"/><path class="cls-5" d="M359.79,1025.47l-12-4.29,12.55-35.11,12,4.28Z"/><path class="cls-5" d="M407.38,1039.34a26.07,26.07,0,0,1-6.33-3.76,12,12,0,0,1-3.11-4.06,10.56,10.56,0,0,1-1.07-3.8,13.68,13.68,0,0,1,.32-3.32l.12-.54,13,2.87c-.58,3.91,1.8,6.46,9.38,8.14l2.89.64a33.16,33.16,0,0,0,5.25.82,11.54,11.54,0,0,0,3.78-.11,3.74,3.74,0,0,0,1.76-.87,2.85,2.85,0,0,0,.7-1.36,2.67,2.67,0,0,0-.24-2,6.38,6.38,0,0,0-2.72-1.86,38,38,0,0,0-6.64-2.11l-3.9-1-2.91-.7q-19.26-4.78-17-15l.1-.44a10.75,10.75,0,0,1,1.2-3.15,8.09,8.09,0,0,1,2.58-2.57,12,12,0,0,1,4.32-1.68,27.15,27.15,0,0,1,6.64-.31,57.32,57.32,0,0,1,9.33,1.37l3.69.82a60.7,60.7,0,0,1,9.45,2.81,29.81,29.81,0,0,1,6.26,3.23,13.47,13.47,0,0,1,3.47,3.54,9.42,9.42,0,0,1,1.48,3.59,9.55,9.55,0,0,1-.15,3.44l-.11.49L436,1019.68a4.91,4.91,0,0,0-.08-1.07,4.31,4.31,0,0,0-.63-1.3,5.44,5.44,0,0,0-1.57-1.52,17.31,17.31,0,0,0-3.16-1.53,28.29,28.29,0,0,0-4.49-1.35l-1.86-.41a30.91,30.91,0,0,0-6.58-.91,6.46,6.46,0,0,0-3.15.43,2.31,2.31,0,0,0-.85,1.43,2.13,2.13,0,0,0,.23,1.64,6,6,0,0,0,2.42,1.67,30.24,30.24,0,0,0,5.84,1.85l2.91.69,3.74.89q11.07,2.64,15.43,6.31a8.71,8.71,0,0,1,3.16,9.15l-.16.68a12.67,12.67,0,0,1-1.27,3.49,8.8,8.8,0,0,1-2.7,2.82,11.82,11.82,0,0,1-4.59,1.91,27.79,27.79,0,0,1-7.18.34,64,64,0,0,1-10.23-1.51l-3.68-.82A52,52,0,0,1,407.38,1039.34Z"/><path class="cls-5" d="M467.49,1050.35l-16.45-39L465.2,1013l11.54,28.65,16.95-25.3,13,1.53-23.62,34.34Z"/><path class="cls-5" d="M551.5,1018.22l-.15,8.51-30.38-.54-.1,5.53,29.67.53-.15,8.54-29.67-.52-.1,6.14,30.92.54-.15,8.71-43.54-.77.66-37.42Z"/><path class="cls-5" d="M571.91,1025.91l-17.47,1.31-.66-8.81,47.82-3.59.66,8.81L584.73,1025l2.14,28.44-12.83,1Z"/><path class="cls-5" d="M662,1042.35a52.65,52.65,0,0,1-10.54,1.46,26,26,0,0,1-7.33-.68,12.06,12.06,0,0,1-4.56-2.32,10.71,10.71,0,0,1-2.59-3,12.78,12.78,0,0,1-1.14-3.13l-.12-.54,12.93-3c1.18,3.77,4.42,5,12,3.3l2.88-.66a33.88,33.88,0,0,0,5.1-1.51,11.82,11.82,0,0,0,3.36-1.73,3.84,3.84,0,0,0,1.21-1.54,3.06,3.06,0,0,0-1-3.24,6.57,6.57,0,0,0-3.27-.5,38.23,38.23,0,0,0-6.9,1l-3.92.81-2.93.61q-19.44,4-21.79-6.19l-.1-.43a10.9,10.9,0,0,1-.27-3.36,8.19,8.19,0,0,1,1.22-3.43,12.1,12.1,0,0,1,3.18-3.38,28,28,0,0,1,5.87-3.13,57,57,0,0,1,9-2.77l3.67-.85a61.59,61.59,0,0,1,9.75-1.53,30,30,0,0,1,7,.23,13.44,13.44,0,0,1,4.66,1.7,9.22,9.22,0,0,1,2.87,2.61,9.33,9.33,0,0,1,1.35,3.16l.11.49-12.88,3a5,5,0,0,0-.53-.93,4.27,4.27,0,0,0-1.13-.9,5.62,5.62,0,0,0-2.07-.7,17.19,17.19,0,0,0-3.51,0,27.91,27.91,0,0,0-4.63.71l-1.85.43a31.23,31.23,0,0,0-6.34,2,6.57,6.57,0,0,0-2.66,1.75,2.26,2.26,0,0,0-.15,1.65,2.19,2.19,0,0,0,.91,1.39,5.94,5.94,0,0,0,2.91.46,30.94,30.94,0,0,0,6.07-.83l2.92-.63,3.75-.81q11.13-2.36,16.64-.93a8.71,8.71,0,0,1,6.79,6.9l.15.68a12.5,12.5,0,0,1,.35,3.7,8.88,8.88,0,0,1-1.22,3.7,12.15,12.15,0,0,1-3.32,3.7,28.7,28.7,0,0,1-6.34,3.4,63.92,63.92,0,0,1-9.88,3l-3.68.85Z"/><path class="cls-5" d="M700.66,1001.5l-16.58,5.63-2.84-8.37,45.39-15.41,2.84,8.36-16.63,5.65,9.16,27-12.18,4.13Z"/><path class="cls-5" d="M788.84,996.49l-11.43,5.07-5.93-4.75-24.32,10.78-.45,7.58-11.44,5.07,3.17-41.79,17.31-7.67Zm-24.65-5.57-11.93-9.54L748.63,983l-.93,15.24Z"/><path class="cls-5" d="M787.44,954.34l34.28,7.17-11.84-20.28,10.86-6.34,18.83,32.23-10.86,6.35L792.38,966l12.47,21.36L794,993.75l-18.83-32.23Z"/><path class="cls-5" d="M847.39,914.41a62.22,62.22,0,0,1,8.1-5.25,36.8,36.8,0,0,1,6.87-2.93,21,21,0,0,1,5.72-.91,16.85,16.85,0,0,1,4.66.51,14.69,14.69,0,0,1,3.71,1.61,15.52,15.52,0,0,1,2.84,2.13,22.41,22.41,0,0,1,2.08,2.4l.9,1.21a20.77,20.77,0,0,1,1.7,2.61,16.57,16.57,0,0,1,1.28,3.34,15.09,15.09,0,0,1,.56,4,15.91,15.91,0,0,1-.76,4.66,22.26,22.26,0,0,1-2.44,5.28,36.2,36.2,0,0,1-4.69,5.83,61.06,61.06,0,0,1-7.3,6.36l-1.38,1.05a63.13,63.13,0,0,1-8.16,5.26,36.51,36.51,0,0,1-6.92,2.91,22.32,22.32,0,0,1-5.76.87,17.09,17.09,0,0,1-4.71-.54,14.41,14.41,0,0,1-3.72-1.66,16.9,16.9,0,0,1-2.84-2.18,23.57,23.57,0,0,1-2-2.35l-.9-1.21a19.66,19.66,0,0,1-1.71-2.64,16,16,0,0,1-1.29-3.3,13.71,13.71,0,0,1-.55-4,16.49,16.49,0,0,1,.8-4.63,21.13,21.13,0,0,1,2.46-5.24,37.07,37.07,0,0,1,4.77-5.82,64.09,64.09,0,0,1,7.33-6.36Zm23.52,5.87a9.29,9.29,0,0,0-1.91-1.9,7.86,7.86,0,0,0-2.75-1.19,9.09,9.09,0,0,0-3.66-.14,17.56,17.56,0,0,0-4.76,1.6,32.49,32.49,0,0,0-4.86,2.89c-.36.26-1.13.83-1.37,1q-12.24,9.56-6.53,17.15l.36.48a8.82,8.82,0,0,0,2.6,2.32,10.26,10.26,0,0,0,3.79,1.17,11.71,11.71,0,0,0,5.61-1,30.36,30.36,0,0,0,6.66-3.82c.2-.15.74-.55,1-.79a30,30,0,0,0,5.14-5,12.13,12.13,0,0,0,2.58-5.08,9.62,9.62,0,0,0,0-4,8.67,8.67,0,0,0-1.5-3.14Z"/><path class="cls-5" d="M909.22,911.93l-40.45-12.68,10.42-9.74,29.33,9.71-8.36-29.29,9.56-8.92,10.95,40.22Z"/><path class="cls-5" d="M971.41,846.89l-8.27,9.4-7.38-1.84-17.58,20,2.76,7.08-8.26,9.39-14.62-39.29,12.5-14.22Zm-24.74,5.27-14.83-3.69-2.63,3,5.54,14.24Z"/><path class="cls-5" d="M951.7,810.27l22.74,16.43L991,803.78l7.52,5.43-24,33.26L944.23,820.6Z"/><path class="cls-5" d="M1010.5,789.48a33.46,33.46,0,0,1-5,5,21.55,21.55,0,0,1-4.85,2.86,16.81,16.81,0,0,1-4.54,1.24,17.5,17.5,0,0,1-4.09-.06,15.39,15.39,0,0,1-3.53-.84,19.88,19.88,0,0,1-2.83-1.36l-1.26-.73a20.06,20.06,0,0,1-3.71-2.72,15.8,15.8,0,0,1-3.07-4.35,16.27,16.27,0,0,1-1.69-6.22,25.32,25.32,0,0,1,1.23-8.52,48.83,48.83,0,0,1,4.94-11.12l1.13-1.95a55.66,55.66,0,0,1,6.95-9.73,28.39,28.39,0,0,1,6.4-5.52,17,17,0,0,1,5.58-2.09,11.63,11.63,0,0,1,4.46-.08,11.09,11.09,0,0,1,3.07,1.18l.49.28-6.8,11.73a5.62,5.62,0,0,0-1.15-.19,8.22,8.22,0,0,0-2,.32,8.66,8.66,0,0,0-2.77,1.25,19.36,19.36,0,0,0-3.26,3.06,33.35,33.35,0,0,0-3.76,5.33,29.32,29.32,0,0,0-3,6.9,10.79,10.79,0,0,0-.37,5.19,8.74,8.74,0,0,0,1.55,3.46,9.11,9.11,0,0,0,2.71,2.34l.52.3a8.47,8.47,0,0,0,3.4,1.11,10.88,10.88,0,0,0,4-.37,11.23,11.23,0,0,0,4.57-2.81,25.22,25.22,0,0,0,4.52-5.88q6.3-10.87,1.82-16.07a.54.54,0,0,0-.11-.13l6.8-11.72.48.28a10.76,10.76,0,0,1,2.67,2.21,12.63,12.63,0,0,1,2.22,4.05,17.07,17.07,0,0,1,1,6,28.61,28.61,0,0,1-1.57,8.32,53.48,53.48,0,0,1-4.9,10.76l-1.13,2A51.71,51.71,0,0,1,1010.5,789.48Z"/><path class="cls-5" d="M1016.35,695l7.76,3.48-12.45,27.7,5.05,2.27,12.15-27.06,7.8,3.51L1024.51,732l5.59,2.51,12.67-28.2,7.93,3.57-17.83,39.7-34.12-15.33Z"/><path class="cls-5" d="M1058.91,685.4l-41.57,8.24,4.49-13.54,30.38-5.51-21.35-21.71,4.12-12.41,28.85,30.07Z"/><polygon class="cls-1" points="854.12 676.12 696.2 616.66 696.2 378.67 739.13 364.47 854.12 415.23 854.12 676.12"/><polygon class="cls-1" points="234.86 676.12 392.77 616.66 392.77 378.67 349.84 364.47 234.86 415.23 234.86 676.12"/><polygon class="cls-2" points="390.59 608.46 243.06 660.11 234.86 763.46 390.59 743.1 390.59 608.46"/><polygon class="cls-2" points="687.48 608.46 835.01 660.11 843.21 763.46 687.48 743.1 687.48 608.46"/><polygon class="cls-2" points="396.87 743.1 686.48 743.1 684.6 543.67 541.67 473.81 390.59 549.49 396.87 743.1"/><polygon class="cls-3" points="397.92 563.98 545.76 512.72 684.7 563.98 684.7 248.57 541.31 187.08 397.92 252.21 397.92 563.98"/><path class="cls-4" d="M141.61,786.37c348-72,462-83,787.6,0-8.54,18.46-107.48,168.85-296.25,197S286,977.4,141.61,786.37Z"/><path d="M1029.71,514.12c-1.72,135.59-49,252.63-145.64,348.12C789,956.19,673,1003.88,539.71,1004c-134.44.06-251.15-48.58-346.3-143.73-95.93-95.93-144-213.29-143.24-349.14C50.91,377.29,99.57,262,193.92,167.67,289.59,72.07,407,23.63,542.19,24.35c134.07.72,249.75,49.88,345,144.66C975.74,257.15,1030.52,381.35,1029.71,514.12ZM927.37,772.39C1046,603,1042,326.23,836.76,155,648-2.66,356.43,10.43,183.37,213.91,128.47,278.46,94,353,79.83,436.53,67.05,511.72,72.89,585.74,96,658.37c15,47.1,46.41,105.13,57.3,114,22.88-6.69,46.38-12.28,69.72-17.79,1.71-4,1-7.75,1-11.37q.07-158.93,0-317.86a54.75,54.75,0,0,1,.15-8.31c1.23-8,4.44-14.58,13.08-17.23,4.68-1.44,9.11-3.65,13.67-5.49q46.1-18.61,92.19-37.24c9.28-3.76,18.33-4.24,27.63.09,2.65,1.24,5.43,3.05,8.86,2.37,2-3.06,1-6.54,1-9.82.09-32.34.15-64.68,0-97,0-9.42,3.67-15.37,12.69-19,23.31-9.47,46.37-19.58,69.53-29.44q31.33-13.35,62.67-26.74c9.15-3.93,18.17-4.45,27.51-.47q66.07,28.17,132.27,56c9.47,3.95,13.68,9.89,13.54,20.38-.43,32-.19,64.07-.11,96.1,0,3.3-.87,6.76,1.36,10.65,4.48-1.52,9-3.12,13.61-4.6a28.32,28.32,0,0,1,19.79.41q55.06,22.18,110.13,44.39c7.43,3,10.81,8.69,11.76,16.18a58.57,58.57,0,0,1,.06,7.38q0,159.87,0,319.72c0,3.6-.53,7.3.76,11.13C880.46,759.47,903.92,766.41,927.37,772.39ZM510.42,376.69c2-.73,10.25-4.06,15.95-4.2a9.42,9.42,0,0,1,8.24,5,11.62,11.62,0,0,1-5.72,16.85c-2,.83-4.06,1.38-6.08,2.09Q466.91,416.34,411,436.25c-2.81,1-6,1.54-7.65,4V727.73c11.79-.61,23.06-1.62,34.27-2.42s22.7-1.16,34.06-1.61,22.69-1.17,34-1.45,22.79-.18,34.18-.18,22.79-.09,34.18.18,22.69,1,34,1.46,22.7.38,34,1.69c11.12,1.29,22.38,1.37,34.18,2V271.89c0-1.85,0-3.7,0-5.55,0-7.54-3.64-12.79-10.19-16.19-1.63-.85-3.34-1.56-5-2.28q-54.24-23-108.47-46.05c-8.37-3.58-16.33-4-24.89-.3-37.52,16.06-75.18,31.81-112.78,47.69-8.31,3.51-12.11,10-12.13,18.86q0,24.48,0,49c0,1.8-.42,3.73.89,5.06,2.13,1.32,3.71,0,5.39-.63q34.68-12.27,69.35-24.58c15-5.35,25.12-9.13,40.13-14.5,4.52-1.61,9-2.24,13,1.19a14.1,14.1,0,0,1,4.6,9.34c-1.09,6.69-5.19,9.37-11,11.29C487.13,316.81,454,328.11,415.93,341c-4.31,1.46-8.8,2.61-12.55,5.73v66.71c0,1-.05,1.26.13,1.46s.52-.12,1.53-.5c2.62-1,7.65-2.87,10.11-3.74q47.67-16.86,95.27-33.92M165.48,792.5c60.39,79.23,136.44,134.29,229.72,164.79,104.7,34.23,209,31.4,311.75-8,83.51-32,152.21-84.14,206.07-155.48-1.6-2.29-3.58-2.59-5.24-3q-44.44-12-89.65-20.75c-28.92-5.56-58-9.86-87.29-13.59-20.71-2.64-41.51-4.29-62.26-6.53-18-1.94-36.12-2.76-54.21-3.62-22.11-1.06-44.27-.42-66.4-1.79-10.7-.67-21.49.6-32.21.78-31.37.54-62.68,1.71-94,3.94-16.86,1.2-33.69,2.86-50.48,4.51-21.36,2.1-42.63,5.22-63.88,8.44-32.79,4.95-65.25,11.49-97.54,19C195.56,784.47,181.39,788.41,165.48,792.5ZM735.39,446.91c5-1.09,9.34-.16,13.8,1.5q34,12.68,68.24,25c4.47,1.62,8.76,4,13.57,4.25,1.8-2.58,1.08-5.12,1.09-7.49.1-11.39-.41-22.81.17-34.17.62-12-5.41-18-14.86-21.52-10.64-3.93-21-8.52-31.57-12.77q-25.61-10.32-51.23-20.58c-5.19-2.09-10.57-3.86-16.14-2.43-6.78,1.74-13.52,3.83-19.21,7.66-1.49,15.71-.92,336.14.73,343.54,43.79,4.6,87.63,10.9,131.12,19.46,1.29-8.17,1.44-161.39.26-170.81a49,49,0,0,0-4.7-2.28q-38.45-14.07-76.91-28.06c-3.74-1.37-7.59-2.5-11.21-4.14a10.82,10.82,0,0,1-6.33-12.9c1.55-6.08,5.95-9.15,12.29-8.69,3.46.25,6.48,1.83,9.63,3q35,12.75,70,25.59c2.43.88,4.8,2.18,7.67,1.86V504.3a5.35,5.35,0,0,0-3.5-2.56c-29.65-10.9-59.24-21.95-89-32.61-5.78-2.07-9.95-4.69-10.46-12.16C729.89,453.82,730.25,449.3,735.39,446.91Zm-354.93-60.3c-11.53-6.73-23.08-11.08-37-5.15C316,393.09,288.31,403.94,260.68,415c-9.43,3.78-13.86,10.34-13.51,20.66.39,11.69,0,23.4.13,35.11,0,2.36-.81,5,1.52,7.4,18.82-6.85,37.82-13.76,56.81-20.69,9.8-3.57,19.53-7.35,29.4-10.7,5.93-2,10.79-.2,13.64,4.32,4.84,7.63.31,15.08-6.85,17.54C323.26,475,304.9,482,286.46,488.77l-38.7,14.17V552.6a2.71,2.71,0,0,0,3,.19c25.91-9.51,51.85-18.95,77.74-28.54,4.16-1.55,8.19-2.49,12.45-1.28,10,8.88,8.69,17.53-3.21,22.31-.57.23-1.13.49-1.71.71q-40.62,14.84-81.25,29.63c-2.59.94-5.25,1.58-7.19,3.55-1.33,22.63-.73,162.45.77,170.12,7.46-1.35,14.92-2.77,22.4-4,16.62-2.8,33.19-6,49.89-8.17,17-2.25,34-5,51.19-6.08,2.93-.18,6.13-.46,8.59-2.91Z"/><path d="M368.15,784.66V764.35L399.39,776l30.39-11.49v20s-18.11,7.47-27.48,11.07c-2.39.91-4.82.42-7.18-.51C386.27,791.65,368.15,784.66,368.15,784.66Z"/><path class="cls-5" d="M397.39,885.54q16.14,0,21.35-1.44c2.5-.72,3.76-2,3.76-3.94s-1.19-3.29-3.59-4.13q-5.19-1.62-21.52-2.15-41.43-1.26-55.95-9.69-12.21-7.17-12.2-25.29,0-17.39,14.34-25.29,16.16-8.77,53.81-8.78,37.5,0,52.91,10.22,13.45,9,13.45,29.24h-43q0-5.38-4.13-7.18-4.49-1.79-19.19-1.79-16.14,0-21.34,1.44c-2.51.71-3.76,2-3.76,3.94s1.25,3,3.76,3.59q4.65,1.26,21.34,1.79,41.43,1.62,55.79,9.87,12.36,7,12.37,25.1,0,17.4-14.35,25.65Q434.88,916,397.39,916q-37.84,0-53.81-10.23-14.34-9.15-14.34-29.23h43.05q0,5.56,3.94,7.17Q380.9,885.54,397.39,885.54Z"/><path class="cls-5" d="M541.31,886.83q16.28,0,21.52-1.45c2.54-.73,3.8-2,3.8-4s-1.2-3.32-3.61-4.16q-5.26-1.63-21.71-2.17-41.79-1.27-56.44-9.77-12.31-7.23-12.3-25.51,0-17.53,14.47-25.5,16.27-8.87,54.27-8.87,37.8,0,53.36,10.32,13.56,9,13.57,29.48H564.82c0-3.61-1.38-6-4.15-7.23q-4.53-1.82-19.36-1.81-16.29,0-21.53,1.45-3.79,1.08-3.8,4c0,1.8,1.27,3,3.8,3.61q4.71,1.28,21.53,1.81,41.79,1.63,56.25,10,12.5,7,12.48,25.32,0,17.55-14.47,25.87-16.46,9.41-54.26,9.41-38.17,0-54.27-10.31-14.48-9.24-14.47-29.49H516q0,5.61,4,7.24Q524.67,886.82,541.31,886.83Z"/><path class="cls-5" d="M684.17,886.83q16.29,0,21.53-1.45c2.53-.73,3.8-2,3.8-4s-1.21-3.32-3.62-4.16q-5.25-1.63-21.71-2.17-41.77-1.27-56.44-9.77-12.3-7.23-12.3-25.51,0-17.53,14.47-25.5,16.29-8.87,54.27-8.87,37.8,0,53.36,10.32,13.58,9,13.57,29.48H707.68c0-3.61-1.38-6-4.15-7.23q-4.53-1.82-19.36-1.81-16.29,0-21.52,1.45-3.81,1.08-3.81,4c0,1.8,1.27,3,3.81,3.61q4.7,1.28,21.52,1.81,41.79,1.63,56.26,10,12.48,7,12.48,25.32,0,17.55-14.47,25.87-16.47,9.41-54.27,9.41-38.17,0-54.27-10.31-14.46-9.24-14.47-29.49h43.41q0,5.61,4,7.24Q667.53,886.82,684.17,886.83Z"/><path class="cls-5" d="M41.28,706.83l-.7.25a15,15,0,0,1-3.89.85,9.9,9.9,0,0,1-4-.69,12.09,12.09,0,0,1-4.22-2.77,26.82,26.82,0,0,1-4.17-5.78,57.88,57.88,0,0,1-4.11-9.31l-1.23-3.51a47,47,0,0,1-2.52-10.18,24.41,24.41,0,0,1,0-7.32,12.24,12.24,0,0,1,2-4.8,11.43,11.43,0,0,1,2.91-3,15.1,15.1,0,0,1,3.2-1.56l.56-.19,4.35,12.34q-5.82,2.5-2,13.32l.24.71A46.61,46.61,0,0,0,30.15,691a10.8,10.8,0,0,0,2.14,3.07,3.83,3.83,0,0,0,1.73,1,3.17,3.17,0,0,0,1.62-.17,3,3,0,0,0,1.71-1.28,6.08,6.08,0,0,0,.24-3.28,34.74,34.74,0,0,0-1.65-6.68l-2.14-6.55q-6-18.62,4.52-22.32l.46-.16a12.43,12.43,0,0,1,3.52-.73,8.74,8.74,0,0,1,3.73.74,11.81,11.81,0,0,1,3.86,2.66,24.73,24.73,0,0,1,3.85,5.35,52.4,52.4,0,0,1,3.77,8.5l1.24,3.5A56.19,56.19,0,0,1,61.26,684a27.19,27.19,0,0,1,.41,7,13,13,0,0,1-1.37,4.82A9.94,9.94,0,0,1,57.82,699a10.91,10.91,0,0,1-3.22,1.77l-.5.18-4.34-12.29a5,5,0,0,0,.94-.65,4.32,4.32,0,0,0,.84-1.24,5.19,5.19,0,0,0,.56-2.13,15.84,15.84,0,0,0-.31-3.46,31.42,31.42,0,0,0-1.38-5l-.28-.81A32.85,32.85,0,0,0,47.28,669c-.89-1.4-1.58-2.2-2.09-2.38a2.57,2.57,0,0,0-1.76.08,2.45,2.45,0,0,0-1.38,1.09,5.75,5.75,0,0,0-.22,2.93,27.59,27.59,0,0,0,1.45,5.85l2.13,6.39Q49,693.57,47.94,699.2A9.42,9.42,0,0,1,41.28,706.83Zm19.07-41.45,4.71-10.79,4,11.17-1.76,4.38,4.1,2.27,3.89,11-10.39-5.3Z"/><path class="cls-5" d="M64,721l-7.44-15.85,8-3.76,20.37,43.39-8,3.75-7.47-15.89-25.8,12.11-5.47-11.64Z"/><path class="cls-5" d="M113,791.45l-15.39,9.26a20.89,20.89,0,0,1-4.35,1.95,18.42,18.42,0,0,1-5.57.72,18.86,18.86,0,0,1-6.38-1.19,21.7,21.7,0,0,1-6.71-4.39A36.91,36.91,0,0,1,68,789.48l-1-1.68a44.89,44.89,0,0,1-3.64-7.44,28.42,28.42,0,0,1-1.6-6.38,19.53,19.53,0,0,1,.15-5.37,16.87,16.87,0,0,1,1.34-4.43,17.93,17.93,0,0,1,2.23-3.53,18.42,18.42,0,0,1,2.61-2.71A21.75,21.75,0,0,1,70.77,756l15.39-9.26,6.58,10.93-14.8,8.9a11.54,11.54,0,0,0-2.88,2.4,10.79,10.79,0,0,0-1.9,3.4,9,9,0,0,0-.12,4.93,20.61,20.61,0,0,0,2.64,6.27,19.82,19.82,0,0,0,4.25,5.17A9.17,9.17,0,0,0,84.32,791a10.38,10.38,0,0,0,3.91-.07,11.52,11.52,0,0,0,3.47-1.42l14.8-8.89Z"/><path class="cls-5" d="M132,816.93a68.6,68.6,0,0,1,5.71,8.6,31.47,31.47,0,0,1,3,7.33,26.06,26.06,0,0,1,.85,6,12,12,0,0,1-.9,4.9,17.61,17.61,0,0,1-2.19,3.78,16.45,16.45,0,0,1-3.06,3l-1.19.92A18.68,18.68,0,0,1,129.9,854a14.32,14.32,0,0,1-5.43.88,16.87,16.87,0,0,1-6.45-1.38,29.9,29.9,0,0,1-7.38-4.83,57.13,57.13,0,0,1-8.28-8.91L85.89,818.24l29.67-22.75Zm-31.2,6,8.07,10.52q10,13,17.62,7.13l.24-.18q7.62-5.83-2.35-18.84L116.31,811Z"/><path class="cls-5" d="M181.65,873.38l-6.17,5.85L154.6,857.15l-4,3.8L171,882.51l-6.22,5.88-20.38-21.57L139.9,871l21.26,22.48-6.33,6L124.9,867.85l27.21-25.71Z"/><path class="cls-5" d="M195.74,886.32l4.38,34.73,15.31-17.79,9.54,8.2-24.35,28.29-9.53-8.2-4.8-36.76-16.13,18.74-9.54-8.2L185,877Z"/><path class="cls-5" d="M236.18,930,221.8,920l5-7.26,39.37,27.34-5,7.26-14.44-10-16.25,23.42-10.57-7.34Z"/><path class="cls-5" d="M260.69,979.61a26.22,26.22,0,0,1-5-5.43,12.19,12.19,0,0,1-1.82-4.77,10.62,10.62,0,0,1,.08-4,12.83,12.83,0,0,1,1.25-3.1l.27-.48,11.63,6.47c-1.67,3.6-.12,6.72,6.67,10.5l2.59,1.44a34,34,0,0,0,4.8,2.3,11.41,11.41,0,0,0,3.66,1,3.82,3.82,0,0,0,1.94-.32,2.89,2.89,0,0,0,1.05-1.11,2.67,2.67,0,0,0,.35-2,6.39,6.39,0,0,0-2.07-2.57,40.69,40.69,0,0,0-5.77-3.93l-3.47-2-2.59-1.52q-17.12-10.11-12-19.23l.23-.39a10.85,10.85,0,0,1,2.05-2.68,8,8,0,0,1,3.21-1.72,12.16,12.16,0,0,1,4.64-.38,27.64,27.64,0,0,1,6.46,1.61,58,58,0,0,1,8.56,4l3.3,1.84a60.09,60.09,0,0,1,8.26,5.41,29.71,29.71,0,0,1,5.08,4.89,13.4,13.4,0,0,1,2.32,4.4,9.11,9.11,0,0,1,.38,3.86,9.37,9.37,0,0,1-1.12,3.26l-.24.43-11.58-6.44a4.85,4.85,0,0,0,.24-1.05,4.47,4.47,0,0,0-.24-1.43,5.64,5.64,0,0,0-1.06-1.91,17.35,17.35,0,0,0-2.61-2.36,26.74,26.74,0,0,0-3.91-2.59l-1.67-.92a30.53,30.53,0,0,0-6.05-2.77,6.59,6.59,0,0,0-3.15-.49,2.28,2.28,0,0,0-1.22,1.13,2.16,2.16,0,0,0-.26,1.64,6.14,6.14,0,0,0,1.85,2.3,30.85,30.85,0,0,0,5.07,3.45l2.6,1.49,3.33,1.93q9.85,5.71,13,10.48a8.7,8.7,0,0,1,.4,9.68l-.34.61a12.71,12.71,0,0,1-2.22,3,9.13,9.13,0,0,1-3.39,1.93,12.15,12.15,0,0,1-5,.52,29.3,29.3,0,0,1-7-1.74,63.67,63.67,0,0,1-9.37-4.38l-3.3-1.84A52.54,52.54,0,0,1,260.69,979.61Z"/><path class="cls-5" d="M320.36,994.9l-3.56-1.55-5.57,12.83-10.67-4.62,14.72-33.91L326,972.28l-4.72,10.86,4,1.75,18.13-5,13.55,5.88-26.32,7L343.13,1020l-13.91-6Z"/><path class="cls-5" d="M359.79,1025.47l-12-4.29,12.55-35.11,12,4.28Z"/><path class="cls-5" d="M407.38,1039.34a26.07,26.07,0,0,1-6.33-3.76,12,12,0,0,1-3.11-4.06,10.56,10.56,0,0,1-1.07-3.8,13.68,13.68,0,0,1,.32-3.32l.12-.54,13,2.87c-.58,3.91,1.8,6.46,9.38,8.14l2.89.64a33.16,33.16,0,0,0,5.25.82,11.54,11.54,0,0,0,3.78-.11,3.74,3.74,0,0,0,1.76-.87,2.85,2.85,0,0,0,.7-1.36,2.67,2.67,0,0,0-.24-2,6.38,6.38,0,0,0-2.72-1.86,38,38,0,0,0-6.64-2.11l-3.9-1-2.91-.7q-19.26-4.78-17-15l.1-.44a10.75,10.75,0,0,1,1.2-3.15,8.09,8.09,0,0,1,2.58-2.57,12,12,0,0,1,4.32-1.68,27.15,27.15,0,0,1,6.64-.31,57.32,57.32,0,0,1,9.33,1.37l3.69.82a60.7,60.7,0,0,1,9.45,2.81,29.81,29.81,0,0,1,6.26,3.23,13.47,13.47,0,0,1,3.47,3.54,9.42,9.42,0,0,1,1.48,3.59,9.55,9.55,0,0,1-.15,3.44l-.11.49L436,1019.68a4.91,4.91,0,0,0-.08-1.07,4.31,4.31,0,0,0-.63-1.3,5.44,5.44,0,0,0-1.57-1.52,17.31,17.31,0,0,0-3.16-1.53,28.29,28.29,0,0,0-4.49-1.35l-1.86-.41a30.91,30.91,0,0,0-6.58-.91,6.46,6.46,0,0,0-3.15.43,2.31,2.31,0,0,0-.85,1.43,2.13,2.13,0,0,0,.23,1.64,6,6,0,0,0,2.42,1.67,30.24,30.24,0,0,0,5.84,1.85l2.91.69,3.74.89q11.07,2.64,15.43,6.31a8.71,8.71,0,0,1,3.16,9.15l-.16.68a12.67,12.67,0,0,1-1.27,3.49,8.8,8.8,0,0,1-2.7,2.82,11.82,11.82,0,0,1-4.59,1.91,27.79,27.79,0,0,1-7.18.34,64,64,0,0,1-10.23-1.51l-3.68-.82A52,52,0,0,1,407.38,1039.34Z"/><path class="cls-5" d="M467.49,1050.35l-16.45-39L465.2,1013l11.54,28.65,16.95-25.3,13,1.53-23.62,34.34Z"/><path class="cls-5" d="M551.5,1018.22l-.15,8.51-30.38-.54-.1,5.53,29.67.53-.15,8.54-29.67-.52-.1,6.14,30.92.54-.15,8.71-43.54-.77.66-37.42Z"/><path class="cls-5" d="M571.91,1025.91l-17.47,1.31-.66-8.81,47.82-3.59.66,8.81L584.73,1025l2.14,28.44-12.83,1Z"/><path class="cls-5" d="M662,1042.35a52.65,52.65,0,0,1-10.54,1.46,26,26,0,0,1-7.33-.68,12.06,12.06,0,0,1-4.56-2.32,10.71,10.71,0,0,1-2.59-3,12.78,12.78,0,0,1-1.14-3.13l-.12-.54,12.93-3c1.18,3.77,4.42,5,12,3.3l2.88-.66a33.88,33.88,0,0,0,5.1-1.51,11.82,11.82,0,0,0,3.36-1.73,3.84,3.84,0,0,0,1.21-1.54,3.06,3.06,0,0,0-1-3.24,6.57,6.57,0,0,0-3.27-.5,38.23,38.23,0,0,0-6.9,1l-3.92.81-2.93.61q-19.44,4-21.79-6.19l-.1-.43a10.9,10.9,0,0,1-.27-3.36,8.19,8.19,0,0,1,1.22-3.43,12.1,12.1,0,0,1,3.18-3.38,28,28,0,0,1,5.87-3.13,57,57,0,0,1,9-2.77l3.67-.85a61.59,61.59,0,0,1,9.75-1.53,30,30,0,0,1,7,.23,13.44,13.44,0,0,1,4.66,1.7,9.22,9.22,0,0,1,2.87,2.61,9.33,9.33,0,0,1,1.35,3.16l.11.49-12.88,3a5,5,0,0,0-.53-.93,4.27,4.27,0,0,0-1.13-.9,5.62,5.62,0,0,0-2.07-.7,17.19,17.19,0,0,0-3.51,0,27.91,27.91,0,0,0-4.63.71l-1.85.43a31.23,31.23,0,0,0-6.34,2,6.57,6.57,0,0,0-2.66,1.75,2.26,2.26,0,0,0-.15,1.65,2.19,2.19,0,0,0,.91,1.39,5.94,5.94,0,0,0,2.91.46,30.94,30.94,0,0,0,6.07-.83l2.92-.63,3.75-.81q11.13-2.36,16.64-.93a8.71,8.71,0,0,1,6.79,6.9l.15.68a12.5,12.5,0,0,1,.35,3.7,8.88,8.88,0,0,1-1.22,3.7,12.15,12.15,0,0,1-3.32,3.7,28.7,28.7,0,0,1-6.34,3.4,63.92,63.92,0,0,1-9.88,3l-3.68.85Z"/><path class="cls-5" d="M700.66,1001.5l-16.58,5.63-2.84-8.37,45.39-15.41,2.84,8.36-16.63,5.65,9.16,27-12.18,4.13Z"/><path class="cls-5" d="M788.84,996.49l-11.43,5.07-5.93-4.75-24.32,10.78-.45,7.58-11.44,5.07,3.17-41.79,17.31-7.67Zm-24.65-5.57-11.93-9.54L748.63,983l-.93,15.24Z"/><path class="cls-5" d="M787.44,954.34l34.28,7.17-11.84-20.28,10.86-6.34,18.83,32.23-10.86,6.35L792.38,966l12.47,21.36L794,993.75l-18.83-32.23Z"/><path class="cls-5" d="M847.39,914.41a62.22,62.22,0,0,1,8.1-5.25,36.8,36.8,0,0,1,6.87-2.93,21,21,0,0,1,5.72-.91,16.85,16.85,0,0,1,4.66.51,14.69,14.69,0,0,1,3.71,1.61,15.52,15.52,0,0,1,2.84,2.13,22.41,22.41,0,0,1,2.08,2.4l.9,1.21a20.77,20.77,0,0,1,1.7,2.61,16.57,16.57,0,0,1,1.28,3.34,15.09,15.09,0,0,1,.56,4,15.91,15.91,0,0,1-.76,4.66,22.26,22.26,0,0,1-2.44,5.28,36.2,36.2,0,0,1-4.69,5.83,61.06,61.06,0,0,1-7.3,6.36l-1.38,1.05a63.13,63.13,0,0,1-8.16,5.26,36.51,36.51,0,0,1-6.92,2.91,22.32,22.32,0,0,1-5.76.87,17.09,17.09,0,0,1-4.71-.54,14.41,14.41,0,0,1-3.72-1.66,16.9,16.9,0,0,1-2.84-2.18,23.57,23.57,0,0,1-2-2.35l-.9-1.21a19.66,19.66,0,0,1-1.71-2.64,16,16,0,0,1-1.29-3.3,13.71,13.71,0,0,1-.55-4,16.49,16.49,0,0,1,.8-4.63,21.13,21.13,0,0,1,2.46-5.24,37.07,37.07,0,0,1,4.77-5.82,64.09,64.09,0,0,1,7.33-6.36Zm23.52,5.87a9.29,9.29,0,0,0-1.91-1.9,7.86,7.86,0,0,0-2.75-1.19,9.09,9.09,0,0,0-3.66-.14,17.56,17.56,0,0,0-4.76,1.6,32.49,32.49,0,0,0-4.86,2.89c-.36.26-1.13.83-1.37,1q-12.24,9.56-6.53,17.15l.36.48a8.82,8.82,0,0,0,2.6,2.32,10.26,10.26,0,0,0,3.79,1.17,11.71,11.71,0,0,0,5.61-1,30.36,30.36,0,0,0,6.66-3.82c.2-.15.74-.55,1-.79a30,30,0,0,0,5.14-5,12.13,12.13,0,0,0,2.58-5.08,9.62,9.62,0,0,0,0-4,8.67,8.67,0,0,0-1.5-3.14Z"/><path class="cls-5" d="M909.22,911.93l-40.45-12.68,10.42-9.74,29.33,9.71-8.36-29.29,9.56-8.92,10.95,40.22Z"/><path class="cls-5" d="M971.41,846.89l-8.27,9.4-7.38-1.84-17.58,20,2.76,7.08-8.26,9.39-14.62-39.29,12.5-14.22Zm-24.74,5.27-14.83-3.69-2.63,3,5.54,14.24Z"/><path class="cls-5" d="M951.7,810.27l22.74,16.43L991,803.78l7.52,5.43-24,33.26L944.23,820.6Z"/><path class="cls-5" d="M1010.5,789.48a33.46,33.46,0,0,1-5,5,21.55,21.55,0,0,1-4.85,2.86,16.81,16.81,0,0,1-4.54,1.24,17.5,17.5,0,0,1-4.09-.06,15.39,15.39,0,0,1-3.53-.84,19.88,19.88,0,0,1-2.83-1.36l-1.26-.73a20.06,20.06,0,0,1-3.71-2.72,15.8,15.8,0,0,1-3.07-4.35,16.27,16.27,0,0,1-1.69-6.22,25.32,25.32,0,0,1,1.23-8.52,48.83,48.83,0,0,1,4.94-11.12l1.13-1.95a55.66,55.66,0,0,1,6.95-9.73,28.39,28.39,0,0,1,6.4-5.52,17,17,0,0,1,5.58-2.09,11.63,11.63,0,0,1,4.46-.08,11.09,11.09,0,0,1,3.07,1.18l.49.28-6.8,11.73a5.62,5.62,0,0,0-1.15-.19,8.22,8.22,0,0,0-2,.32,8.66,8.66,0,0,0-2.77,1.25,19.36,19.36,0,0,0-3.26,3.06,33.35,33.35,0,0,0-3.76,5.33,29.32,29.32,0,0,0-3,6.9,10.79,10.79,0,0,0-.37,5.19,8.74,8.74,0,0,0,1.55,3.46,9.11,9.11,0,0,0,2.71,2.34l.52.3a8.47,8.47,0,0,0,3.4,1.11,10.88,10.88,0,0,0,4-.37,11.23,11.23,0,0,0,4.57-2.81,25.22,25.22,0,0,0,4.52-5.88q6.3-10.87,1.82-16.07a.54.54,0,0,0-.11-.13l6.8-11.72.48.28a10.76,10.76,0,0,1,2.67,2.21,12.63,12.63,0,0,1,2.22,4.05,17.07,17.07,0,0,1,1,6,28.61,28.61,0,0,1-1.57,8.32,53.48,53.48,0,0,1-4.9,10.76l-1.13,2A51.71,51.71,0,0,1,1010.5,789.48Z"/><path class="cls-5" d="M1016.35,695l7.76,3.48-12.45,27.7,5.05,2.27,12.15-27.06,7.8,3.51L1024.51,732l5.59,2.51,12.67-28.2,7.93,3.57-17.83,39.7-34.12-15.33Z"/><path class="cls-5" d="M1058.91,685.4l-41.57,8.24,4.49-13.54,30.38-5.51-21.35-21.71,4.12-12.41,28.85,30.07Z"/></svg>