<svg id="visual" viewBox="0 0 900 600" width="900" height="600" xmlns="http://www.w3.org/2000/svg" version="1.1">
    <path d="M0 85L21.5 92C43 99 86 113 128.8 106C171.7 99 214.3 71 257.2 68C300 65 343 87 385.8 91C428.7 95 471.3 81 514.2 71C557 61 600 55 642.8 64C685.7 73 728.3 97 771.2 117C814 137 857 153 878.5 161L900 169L900 0L878.5 0C857 0 814 0 771.2 0C728.3 0 685.7 0 642.8 0C600 0 557 0 514.2 0C471.3 0 428.7 0 385.8 0C343 0 300 0 257.2 0C214.3 0 171.7 0 128.8 0C86 0 43 0 21.5 0L0 0Z" fill="#a6cae8"></path>
    <path d="M0 103L21.5 110C43 117 86 131 128.8 131C171.7 131 214.3 117 257.2 115C300 113 343 123 385.8 118C428.7 113 471.3 93 514.2 89C557 85 600 97 642.8 116C685.7 135 728.3 161 771.2 178C814 195 857 203 878.5 207L900 211L900 167L878.5 159C857 151 814 135 771.2 115C728.3 95 685.7 71 642.8 62C600 53 557 59 514.2 69C471.3 79 428.7 93 385.8 89C343 85 300 63 257.2 66C214.3 69 171.7 97 128.8 104C86 111 43 97 21.5 90L0 83Z" fill="#a0d0e7"></path>
    <path d="M0 145L21.5 154C43 163 86 181 128.8 177C171.7 173 214.3 147 257.2 146C300 145 343 169 385.8 175C428.7 181 471.3 169 514.2 157C557 145 600 133 642.8 144C685.7 155 728.3 189 771.2 214C814 239 857 255 878.5 263L900 271L900 209L878.5 205C857 201 814 193 771.2 176C728.3 159 685.7 133 642.8 114C600 95 557 83 514.2 87C471.3 91 428.7 111 385.8 116C343 121 300 111 257.2 113C214.3 115 171.7 129 128.8 129C86 129 43 115 21.5 108L0 101Z" fill="#9fd6e4"></path>
    <path d="M0 169L21.5 183C43 197 86 225 128.8 223C171.7 221 214.3 189 257.2 189C300 189 343 221 385.8 226C428.7 231 471.3 209 514.2 198C557 187 600 187 642.8 196C685.7 205 728.3 223 771.2 244C814 265 857 289 878.5 301L900 313L900 269L878.5 261C857 253 814 237 771.2 212C728.3 187 685.7 153 642.8 142C600 131 557 143 514.2 155C471.3 167 428.7 179 385.8 173C343 167 300 143 257.2 144C214.3 145 171.7 171 128.8 175C86 179 43 161 21.5 152L0 143Z" fill="#a2dbde"></path>
    <path d="M0 205L21.5 214C43 223 86 241 128.8 236C171.7 231 214.3 203 257.2 213C300 223 343 271 385.8 283C428.7 295 471.3 271 514.2 251C557 231 600 215 642.8 215C685.7 215 728.3 231 771.2 253C814 275 857 303 878.5 317L900 331L900 311L878.5 299C857 287 814 263 771.2 242C728.3 221 685.7 203 642.8 194C600 185 557 185 514.2 196C471.3 207 428.7 229 385.8 224C343 219 300 187 257.2 187C214.3 187 171.7 219 128.8 221C86 223 43 195 21.5 181L0 167Z" fill="#a9dfd8"></path>
    <path d="M0 313L21.5 318C43 323 86 333 128.8 324C171.7 315 214.3 287 257.2 300C300 313 343 367 385.8 368C428.7 369 471.3 317 514.2 299C557 281 600 297 642.8 305C685.7 313 728.3 313 771.2 318C814 323 857 333 878.5 338L900 343L900 329L878.5 315C857 301 814 273 771.2 251C728.3 229 685.7 213 642.8 213C600 213 557 229 514.2 249C471.3 269 428.7 293 385.8 281C343 269 300 221 257.2 211C214.3 201 171.7 229 128.8 234C86 239 43 221 21.5 212L0 203Z" fill="#b4e2d1"></path>
    <path d="M0 385L21.5 399C43 413 86 441 128.8 447C171.7 453 214.3 437 257.2 433C300 429 343 437 385.8 434C428.7 431 471.3 417 514.2 409C557 401 600 399 642.8 389C685.7 379 728.3 361 771.2 357C814 353 857 363 878.5 368L900 373L900 341L878.5 336C857 331 814 321 771.2 316C728.3 311 685.7 311 642.8 303C600 295 557 279 514.2 297C471.3 315 428.7 367 385.8 366C343 365 300 311 257.2 298C214.3 285 171.7 313 128.8 322C86 331 43 321 21.5 316L0 311Z" fill="#c1e5cb"></path>
    <path d="M0 547L21.5 553C43 559 86 571 128.8 571C171.7 571 214.3 559 257.2 558C300 557 343 567 385.8 567C428.7 567 471.3 557 514.2 557C557 557 600 567 642.8 574C685.7 581 728.3 585 771.2 583C814 581 857 573 878.5 569L900 565L900 371L878.5 366C857 361 814 351 771.2 355C728.3 359 685.7 377 642.8 387C600 397 557 399 514.2 407C471.3 415 428.7 429 385.8 432C343 435 300 427 257.2 431C214.3 435 171.7 451 128.8 445C86 439 43 411 21.5 397L0 383Z" fill="#d0e7c6"></path>
    <path d="M0 601L21.5 601C43 601 86 601 128.8 601C171.7 601 214.3 601 257.2 601C300 601 343 601 385.8 601C428.7 601 471.3 601 514.2 601C557 601 600 601 642.8 601C685.7 601 728.3 601 771.2 601C814 601 857 601 878.5 601L900 601L900 563L878.5 567C857 571 814 579 771.2 581C728.3 583 685.7 579 642.8 572C600 565 557 555 514.2 555C471.3 555 428.7 565 385.8 565C343 565 300 555 257.2 556C214.3 557 171.7 569 128.8 569C86 569 43 557 21.5 551L0 545Z" fill="#e0e8c4"></path>
</svg>