<?xml version="1.0" encoding="utf-8"?>
<!-- Generator: Adobe Illustrator 25.2.1, SVG Export Plug-In . SVG Version: 6.00 Build 0)  -->
<svg version="1.1" id="Layer_6" xmlns="http://www.w3.org/2000/svg" x="0px" y="0px"
     viewBox="0 0 460.1 189.1" style="enable-background:new 0 0 460.1 189.1;" xml:space="preserve">
<style type="text/css">
	.st0{fill:#FFFFFF;}
	.st1{fill:#231F20;}
	.st2{fill:#61A6DB;}
	.st3{fill:#A2CC3A;}
	.st4{fill:#F59222;}
</style>
    <path class="st0" d="M235.3,54.9c0.3-0.1,0.6-0.2,0.7-0.4C236.5,53.4,235.6,54.4,235.3,54.9z"/>
    <path class="st0" d="M235.1,55.2l0.2-0.2L235,55C235,55.1,235.1,55.1,235.1,55.2z"/>
    <path class="st1" d="M109.4,114.6v6.8h-3.3v15.4h3.3v6.8H96.1V137h2.1v-11.3c-2,5.9-3.8,11.8-5.2,17.9h-9.4
	c-1.4-6.1-3.1-12-5.2-17.9V137h2v6.6H67.4v-6.8h3.3v-15.4h-3.3v-6.8h14.4c3.5,10.9,5.7,18.5,6.6,22.8c0.9-4.3,3.1-11.9,6.6-22.8
	H109.4z"/>
    <path class="st1" d="M142.4,136.8h2.6v6.8h-13.4v-6.8h2.5l-1-3.3h-8.1l-1.2,3.3h2.4v6.8h-13.5v-6.8h2.9l7.3-15.3h-2.5v-6.8h13.4
	L142.4,136.8z M131.2,128.3c-0.9-2.1-1.6-4.3-2.2-6.5c-0.4,1.3-1.1,3.4-2.3,6.5H131.2z"/>
    <path class="st1" d="M169.1,121.4v12.2c0,1.4-0.2,2.8-0.7,4.1c-0.5,1.2-1.2,2.3-2.2,3.2c-1.1,0.9-2.3,1.6-3.7,2.1
	c-1.6,0.6-3.4,0.9-5.1,0.9c-1.5,0-2.9-0.2-4.3-0.7c-3.2-1-5.7-3.5-6.6-6.8l6.6-1.8c0.1,0.7,0.5,1.4,1.2,1.7c0.8,0.5,1.7,0.8,2.6,0.8
	h0.3c0.8,0,1.6-0.2,2.3-0.6c0.7-0.5,1.2-1.2,1.2-2.1v-13.1h-3.1v-6.8H172v6.8L169.1,121.4z"/>
    <path class="st1" d="M194.5,116.1l0.4-1.4h4.1v8.6h-6c-0.1-1-0.8-1.9-1.7-2.3c-1.1-0.3-2.3-0.5-3.4-0.4c-1.2-0.1-2.4,0.1-3.4,0.7
	c-0.5,0.2-0.8,0.7-0.8,1.2v0.1c0,0.7,0.5,1.3,1.1,1.6c1.6,0.6,3.3,0.9,5,1c2.3,0.2,4.6,0.8,6.8,1.7c2,0.9,3.5,2.7,4.1,4.8
	c0.2,0.8,0.4,1.7,0.4,2.5c0,1.3-0.3,2.6-0.8,3.8c-0.4,0.9-0.9,1.7-1.4,2.4c-0.8,1-1.7,1.7-2.8,2.3c-1.8,0.9-4.3,1.4-7.7,1.4
	c-2.2,0.1-4.5-0.5-6.4-1.7c-0.5-0.3-1-0.7-1.4-1.1l-0.7,2.4h-4.1v-8.5h7.4c0.3,1.2,1,2.2,2,2.8c1,0.5,2,0.7,3.1,0.7h0.2
	c1.2,0.1,2.4-0.2,3.5-0.7c0.9-0.5,1.4-1.4,1.4-2.4c0-0.9-0.4-1.7-1.2-2.1c-0.5-0.2-1-0.4-1.5-0.6c-1-0.2-2-0.4-3.1-0.6
	c-1.9-0.4-3.4-0.7-4.5-1c-0.9-0.2-1.7-0.5-2.6-0.9c-1.7-0.7-3-2.1-3.6-3.8c-0.4-1-0.6-2.1-0.6-3.1c0-0.7,0.1-1.4,0.2-2.1
	c0.3-1.7,1.2-3.4,2.5-4.6c0.7-0.6,1.4-1.1,2.3-1.5c2.2-0.8,4.5-1.1,6.8-1c1.9-0.1,3.8,0.3,5.5,1.1
	C193.8,115.6,194.1,115.8,194.5,116.1z M194.9,125.4L194.9,125.4L194.9,125.4z"/>
    <path class="st1" d="M236.9,136.8h2.2v6.8h-14.4v-6.8h1.4l-4.6-5.7l-5.1,3.7v2h2.4v6.8h-14.4v-6.8h3.3v-15.4h-3.3v-6.8h14.4v6.8
	h-2.4v5.1l7.2-5.1h-1.4v-6.8h14.4v6.8h-2.9l-6.4,4.4L236.9,136.8z"/>
    <path class="st1" d="M245.9,121.4h-3.3v-6.8h23.3v8.2h-4.8v-1.7h-6.8v4.3h8.3v6.1h-8.3v5.8h6.8v-1.9h4.8v8.2h-23.2v-6.8h3.3V121.4z"
    />
    <path class="st1" d="M294.8,114.6v6.8h-3v15.4h3v6.8h-14.4v-6.8h3v-15.4h-3v-6.8H294.8z"/>
    <path class="st1" d="M328.4,134.4v9.1H322v-3.2c-1.6,2.5-4.3,3.7-8.3,3.7h-0.1c-4,0.1-7.9-1.5-10.8-4.4c-5.8-5.6-6-14.8-0.4-20.6
	c0.1-0.1,0.2-0.2,0.4-0.4c2.9-2.8,6.7-4.4,10.8-4.3c2.5,0,5,0.6,7.3,1.7c0.4,0.2,0.8,0.4,1.2,0.6s0.8,0.5,1.2,0.7l0.7-2.8h4.1v9.9
	h-8.3c-0.2-0.4-0.5-0.7-0.8-1c-1.3-1.5-3.1-2.4-5.1-2.3c-1.9,0-3.8,0.8-5,2.3c-2.6,3.3-2.6,8,0,11.4c1.2,1.5,3.1,2.4,5,2.4
	c2.7,0,4.4-0.9,5.3-2.8h-3.8v-5.8h15.2v5.8L328.4,134.4z"/>
    <path class="st1" d="M337.5,121.4h-3.3v-6.8h20.7c3.2,0,5.5,0.6,6.8,1.9c2.6,2.4,2.7,6.4,0.3,9c-0.1,0.1-0.2,0.2-0.3,0.3
	c-1.3,1.3-3,2-4.8,1.9c1.5,0,3.1,1.1,4.8,3.2c0.8,1.1,1.3,3,1.4,5.8h3.1v6.8h-14.4v-6.8h2.3v-1.3c0-2.7-0.6-4-1.9-4h-6.3v5.3h2.8
	v6.8h-14.4v-6.8h3.3L337.5,121.4z M345.9,125.4h6.2c0.7,0,1.3-0.3,1.7-0.9c0.3-0.4,0.4-0.9,0.4-1.4c0-1.1-0.9-2-2-2c0,0-0.1,0-0.1,0
	h-6.2V125.4z"/>
    <path class="st1" d="M371.8,121.4h-3.3v-6.8h23.3v8.2H387v-1.7h-6.8v4.3h8.3v6.1h-8.3v5.8h6.8v-1.9h4.8v8.2h-23.2v-6.8h3.3V121.4z"
    />
    <path class="st2" d="M399.2,114.6v4.8h37.1c0.8,0,1.5-0.4,1.9-1.1l2.3-3.7H399.2z"/>
    <path class="st3" d="M399.2,126.7v4.8h30.1c0.8,0,1.5-0.4,1.9-1.1l2.1-3.6H399.2z"/>
    <path class="st4" d="M399.2,138.8v4.8h23.3c0.8,0,1.5-0.4,1.9-1.1l2.1-3.7H399.2z"/>
    <path class="st2" d="M59.6,114.6v4.8H22.5c-0.8,0-1.5-0.4-1.9-1.1l-2.2-3.7H59.6z"/>
    <path class="st3" d="M59.6,126.7v4.8H29.4c-0.8,0-1.6-0.4-2-1.1l-2.1-3.6H59.6z"/>
    <path class="st4" d="M59.6,138.8v4.8H36.4c-0.8,0-1.6-0.4-2-1.1l-2.1-3.7H59.6z"/>
    <path class="st3" d="M235.3,53.7c0.3-0.1,0.6-0.2,0.7-0.4C236.5,52.2,235.6,53.2,235.3,53.7z"/>
    <path class="st3" d="M235.1,53.9l0.2-0.2l-0.2,0.1C235,53.8,235.1,53.9,235.1,53.9z"/>
    <path class="st3" d="M232,55.1c-0.8,4.3-0.4,12.2-0.4,12.2c-0.1-0.3-0.1-0.6-0.9-3.3c-0.5-2.9-3.5-3.2-5.4-2
	c-0.4,3.9,0.5,8.9,2.6,9.4c1.4,0.4,2.8,0.1,3.9-0.8c-0.5,2.2-1.7,3.8-3.5,4.1c-2.6,0.3-3.5-2-4.3-6.4c-0.2-1.2-0.3-2.4-0.3-3.6
	c-0.4-0.6-0.8-1.2-1.3-1.8c-1.3-1.1-3.1-1.1-4.4-0.2c-0.4,3.9,0.5,9,2.6,9.5c1.4,0.4,2.8,0.1,3.9-0.8c-0.5,2.2-1.7,3.8-3.5,4.1
	c-2.6,0.3-3.5-2-4.4-6.4c-0.4-1.5-0.4-3.1-0.1-4.6c-0.7,1.7-0.9,3.6-0.6,5.4c0.5,12.8,6.3,11.9,6.6,14.6l0.2,17.1h9.2l-0.1-17.4
	c-0.1-2.2,5.5-6,5.5-11.8c0-4.8,0.3-9.6,0.9-14.3C239.1,51.7,232.9,50.8,232,55.1z M233.5,55.4c-0.6,3-1,7.9-1.5,15
	c0-0.2-0.1-3.9-0.2-5c0,0-0.4-10.8,1.3-12c1.4-0.9,1.8,0,1.9,0.4C234.3,54,233.7,54.6,233.5,55.4z"/>
    <path class="st4" d="M235.7,47.2c0.8,1.6,4.6,7.5-0.3,7.1c-5.4-0.3-0.8-6.3,0.2-7.7L235.7,47.2z"/>
    <path class="st2" d="M165.1,70.1c-0.3-1.8-0.1-3.7,0.6-5.4c-0.3,1.5-0.3,3.1,0.1,4.6c0.8,4.4,1.7,6.7,4.3,6.4
	c1.8-0.2,3.1-1.8,3.5-4.1c-1.1,0.8-2.6,1.1-3.9,0.8c-2.1-0.5-3-5.5-2.7-9.4c1.3-1,3.3-1.3,4.4,0.2c1.5,1.9,2.3,4.3,2.3,6.7
	c0,0-0.6-4-1.2-11.1c-0.3-3.6,0.4-5.4,1.2-6.2c1.7-0.3,3.3-0.6,3.7,1.5c0.1,0.9,3.5,16,3.8,16.1c1.4-3.6,2.4-7.2,3.1-11
	c0.8-4.1,1.9-5.7,2.7-6.3c-0.3,0-0.6,0-0.9,0c2.1-0.4,4.8,1.6,4.3,6c-0.8,6.6-2.5,14-2.5,14c-1.2,4.8-5,8.7-4.9,10.9l1.5,18h-12.7
	l-0.2-17.1C171.3,82,165.6,82.8,165.1,70.1"/>
    <path class="st4" d="M174.7,47c0.9,1.5,5.2,7.1,0.2,7.1c-5.4,0.1-1.3-6.3-0.4-7.7L174.7,47z"/>
    <path class="st4" d="M189.2,49.1c0.6,1.7,3.9,7.9-1,7.1c-5.4-0.8-0.2-6.4,0.9-7.6L189.2,49.1z"/>
    <path class="st4" d="M294.1,51.9c-0.1-1.9-3.7-2.5-4.2,0.3c-0.4,2.3-1,5.4-1.2,6.6c-0.3-0.5-0.9-0.8-1.5-0.9
	c-1.7-0.1-2.5,0.8-2.7,2.8l0,0l-0.4,0.1c-0.1-1.7-0.6-2.8-1.8-3c-1-0.2-2.1,0.2-2.7,1.1c0-2.9-0.1-6.9-0.3-8.3c-0.3-2.3-1-3-2.1-3.1
	s-2.5,1-2.6,3.3c-0.2,3,0,14.5-2.2,15.8c-2.3,1.3-3.5-2-5.1-3.9s-3.2-2.4-4.2-1.7l0,0l0,0l0,0l0,0l0,0v0l0,0l0,0l0,0v0l0,0l0,0v0.1
	v0v0.1c0,0,0,0,0,0.1v0.1v0.1c0,0,0,0,0,0.1v0.1c0,0,0,1.8,0,0.1c0,0,0,0,0,0.1v0.1c0,0,0,0,0,0.1s0,0,0,0.1s0,0,0,0.1v0.1
	c0,0,0,0.1,0,0.1v0.2c0,0,0,0.1,0,0.1v0.1c0,0,0,0.1,0,0.1c0,0,0,0.1,0,0.1c0,0,0,0.1,0,0.1s0,0.1,0,0.1c0,0,0,0.1,0,0.1v0.1
	c0,0,0,0.1,0,0.1l0,0v0.1l0,0v0.1c0,0,0,0.1,0,0.1v0.1c0,0,0,0.1,0,0.1l0,0l0,0.1c0,0,0,0.1,0,0.1c0,0,0,0.1,0,0.1l0,0l0.1,0.1l0,0
	l0.1,0.1l0.1,0.1l0.1,0.1c0,0,0,0.1,0.1,0.1l0,0c0,0,0,0.1,0.1,0.1l0.1,0.1l0,0l0.1,0.1l0,0c0,0,0,0.1,0.1,0.1l0,0l0.1,0.1l0.1,0.2
	l0,0l0.1,0.1l0,0c0,0,0.1,0.1,0.1,0.2l0,0l0.1,0.2l0,0l0.1,0.2l0,0l0.1,0.2l0,0l0.1,0.2l0,0l0.1,0.2l0,0l0.1,0.1l0,0
	c0,0,0.1,0.1,0.1,0.1l0,0l0.1,0.1l0,0c0,0,0.1,0.1,0.1,0.1l0,0c0,0,0.1,0.1,0.1,0.1l0,0l0.1,0.1l0,0l0.1,0.1v0.1l0.1,0.1l0,0
	c0,0.1,0.1,0.1,0.1,0.2v0.1l0.1,0.1v0.1l0,0l0.1,0.1l0.1,0.1l0,0.1l0,0.1l0,0l0.1,0.1l0.1,0.1l0,0l0,0.1l0,0l0.1,0.1
	c0.2,0.3,0.3,0.6,0.5,0.8l0,0l0.1,0.2l0,0c0.3,0.4,0.5,0.8,0.8,1.3l0,0L268,72l0,0l0.1,0.2l0,0l0.1,0.2l0,0l0.1,0.2l0,0l0.1,0.2v0
	l0.1,0.2l0,0l0.1,0.2l0,0l0.1,0.2l0,0l0.1,0.2l0,0l0.1,0.2l0.1,0.1l0.1,0.1l0,0l0.1,0.2l0,0l0.1,0.2l0,0l0.1,0.2v0.1l0.1,0.2l0,0
	l0.2,0.2l0,0.1h0l0,0l0.1,0.1l0,0l0.2,0.2l0,0l0.2,0.2l0,0l0.2,0.2l0,0l0.2,0.2l0,0l0.2,0.2l0,0l0.2,0.1l0,0l0.2,0.2l0,0
	c3.9,4.5,4.6,15.2,4.2,24.7h10.5c-0.3-10.3,0.2-21.1,3.8-25.1c0,0,0.1,0,0.1-0.1l0,0l0.1-0.1l0.1-0.1l0,0l0.1-0.1l0,0
	c1.2-1.4,1.9-3.1,2.1-4.9C293.7,64.3,294.1,58.1,294.1,51.9z M275.5,66c-0.9,2-3.6,3-5,1.3c-0.1-0.2-0.2-0.3-0.2-0.5
	c0.6,0.8,1.7,1,2.5,0.4c2.3-1.3,2.1-12.8,2.2-15.8c-0.1-1.3,0.7-2.6,1.9-3.2l0.3,0c0,0-0.8,0.7-0.7,5S276.4,64,275.5,66z
	 M282.6,73.5c-0.2,0.1-0.4-0.1-0.5-0.3c-0.5-2.3-2.4-4.2-4.8-4.6c-0.2,0-0.4-0.2-0.4-0.5c0-0.2,0.2-0.4,0.4-0.4c0,0,0,0,0,0
	c2.7,0.5,4.8,2.6,5.4,5.2C282.9,73.2,282.8,73.4,282.6,73.5z M281.1,67.8c-1.7-0.3-2.2-1.8-2.2-4.9c0-2.4,0.7-4,2-4.5
	c-0.6,1.8-1.2,5.5,0.2,7c0.9,1,1.7,1.1,2.1,0.9C282.8,67.4,282,68,281.1,67.8z M286.4,67.9c-1.7-0.2-2-1.9-1.9-5.2
	c0-2.4,0.5-3.9,1.7-4.4c-0.8,2.7-0.9,6.5,0.5,7.1c0.8,0.4,1.8,0.4,2.6,0C288.6,67,287.6,68,286.4,67.9z M291,55.4
	c-0.3,2.1-1.2,6.9-1.2,6.9c-0.1-1.2-0.5-2.3-1-3.3c0.2-1.2,0.8-4.4,1.2-6.7c0.1-1.1,0.9-1.9,2-1.9C291.4,52,291.1,53.7,291,55.4
	L291,55.4z"/>
    <path class="st4" d="M222,77.3c-0.4-1.1-5.5-7.2,0.7-6.8c4.1,0.2,1.3,5.9-0.5,7.4L222,77.3z"/>
    <path class="st4" d="M229.4,76.5c-0.4-1.1-5.5-7.2,0.7-6.8c4.1,0.2,1.3,5.9-0.5,7.4L229.4,76.5z"/>
</svg>
