<?xml version="1.0" encoding="utf-8"?>
<!-- Generator: Adobe Illustrator 25.2.1, SVG Export Plug-In . SVG Version: 6.00 Build 0)  -->
<svg version="1.1" id="Layer_6" xmlns="http://www.w3.org/2000/svg" x="0px" y="0px"
     viewBox="0 0 460.1 189.1" style="enable-background:new 0 0 460.1 189.1;" xml:space="preserve">
<style type="text/css">
	.st0{fill:#FFFFFF;}
	.st1{fill:#61A6DB;}
	.st2{fill:#A2CC3A;}
	.st3{fill:#F59222;}
</style>
    <path class="st0" d="M236.7,57.8c0.3-0.1,0.6-0.2,0.7-0.4C237.9,56.3,237.1,57.3,236.7,57.8z"/>
    <path class="st0" d="M236.5,58.1l0.2-0.2l-0.2,0.1C236.5,58,236.5,58,236.5,58.1z"/>
    <path class="st0" d="M110.8,117.5v6.8h-3.3v15.4h3.3v6.8H97.5v-6.6h2.1v-11.3c-2,5.9-3.8,11.8-5.2,17.9h-9.4
	c-1.4-6.1-3.1-12-5.2-17.9v11.3h2v6.6H68.8v-6.8h3.3v-15.4h-3.3v-6.8h14.4c3.5,10.9,5.7,18.5,6.6,22.8c0.9-4.3,3.1-11.9,6.6-22.8
	H110.8z"/>
    <path class="st0" d="M143.8,139.7h2.6v6.8h-13.4v-6.8h2.5l-1-3.3h-8.1l-1.2,3.3h2.4v6.8H114v-6.8h2.9l7.3-15.3h-2.5v-6.8h13.4
	L143.8,139.7z M132.6,131.2c-0.9-2.1-1.6-4.3-2.2-6.5c-0.4,1.3-1.1,3.4-2.2,6.5H132.6z"/>
    <path class="st0" d="M170.5,124.3v12.2c0,1.4-0.2,2.8-0.7,4.1c-0.5,1.2-1.2,2.3-2.2,3.2c-1.1,0.9-2.3,1.6-3.7,2.1
	c-1.6,0.6-3.4,0.9-5.1,0.9c-1.5,0-2.9-0.2-4.3-0.7c-3.2-1-5.7-3.5-6.6-6.8l6.6-1.8c0.1,0.7,0.5,1.4,1.2,1.7c0.8,0.5,1.7,0.8,2.6,0.8
	h0.3c0.8,0,1.6-0.2,2.3-0.6c0.7-0.5,1.2-1.2,1.2-2.1v-13.1H159v-6.8h14.4v6.8L170.5,124.3z"/>
    <path class="st0" d="M195.9,119l0.4-1.4h4.1v8.6h-6c-0.1-1-0.8-1.9-1.7-2.3c-1.1-0.3-2.3-0.5-3.4-0.4c-1.2-0.1-2.4,0.1-3.4,0.7
	c-0.5,0.2-0.8,0.7-0.8,1.2v0.1c0,0.7,0.5,1.3,1.1,1.6c1.6,0.6,3.3,0.9,5,1c2.3,0.2,4.6,0.8,6.8,1.7c2,0.9,3.5,2.7,4.1,4.8
	c0.2,0.8,0.4,1.7,0.4,2.5c0,1.3-0.3,2.6-0.8,3.8c-0.4,0.9-0.9,1.7-1.4,2.4c-0.8,1-1.7,1.7-2.8,2.3c-1.8,0.9-4.3,1.4-7.7,1.4
	c-2.2,0.1-4.5-0.5-6.4-1.7c-0.5-0.3-1-0.7-1.4-1.1l-0.7,2.4H177V138h7.4c0.3,1.2,1,2.2,2,2.8c1,0.5,2,0.7,3.1,0.7h0.2
	c1.2,0.1,2.4-0.2,3.5-0.7c0.9-0.5,1.4-1.4,1.4-2.4c0-0.9-0.4-1.7-1.2-2.1c-0.5-0.2-1-0.4-1.5-0.6c-1-0.2-2-0.4-3.1-0.6
	c-1.9-0.4-3.4-0.7-4.5-1c-0.9-0.2-1.7-0.5-2.6-0.9c-1.7-0.7-3-2.1-3.6-3.8c-0.4-1-0.6-2.1-0.6-3.1c0-0.7,0.1-1.4,0.2-2.1
	c0.3-1.7,1.2-3.4,2.5-4.6c0.7-0.6,1.4-1.1,2.3-1.5c2.2-0.8,4.5-1.1,6.8-1c1.9-0.1,3.8,0.3,5.5,1.1
	C195.2,118.5,195.6,118.7,195.9,119z M196.3,128.3L196.3,128.3L196.3,128.3z"/>
    <path class="st0" d="M238.4,139.7h2.2v6.8h-14.4v-6.8h1.4l-4.6-5.7l-5.1,3.7v2h2.4v6.8h-14.4v-6.8h3.3v-15.4h-3.3v-6.8h14.4v6.8
	h-2.4v5.1l7.2-5.1h-1.4v-6.8H238v6.8H235l-6.4,4.5L238.4,139.7z"/>
    <path class="st0" d="M247.3,124.3H244v-6.8h23.3v8.2h-4.8V124h-6.8v4.3h8.3v6.1h-8.3v5.8h6.8v-1.9h4.8v8.2h-23.2v-6.8h3.3V124.3z"/>
    <path class="st0" d="M296.2,117.5v6.8h-3v15.4h3v6.8h-14.4v-6.8h3v-15.4h-3v-6.8H296.2z"/>
    <path class="st0" d="M329.8,137.3v9.1h-6.4v-3.2c-1.6,2.5-4.3,3.7-8.3,3.7H315c-4,0.1-7.9-1.5-10.8-4.4c-5.8-5.6-6-14.8-0.4-20.6
	c0.1-0.1,0.2-0.2,0.4-0.4c2.9-2.8,6.7-4.4,10.8-4.3c2.5,0,5,0.6,7.3,1.7c0.4,0.2,0.8,0.4,1.2,0.6s0.8,0.5,1.2,0.7l0.7-2.8h4.1v9.9
	h-8.3c-0.2-0.4-0.5-0.7-0.8-1c-1.3-1.5-3.1-2.4-5.1-2.3c-1.9,0-3.8,0.8-5,2.3c-2.6,3.3-2.6,8,0,11.4c1.2,1.5,3.1,2.4,5,2.4
	c2.7,0,4.4-0.9,5.3-2.8H317v-5.8h15.2v5.8L329.8,137.3z"/>
    <path class="st0" d="M338.9,124.3h-3.3v-6.8h20.7c3.2,0,5.5,0.6,6.8,1.9c2.6,2.4,2.7,6.4,0.3,9c-0.1,0.1-0.2,0.2-0.3,0.3
	c-1.3,1.3-3,2-4.8,1.9c1.5,0,3.1,1.1,4.8,3.2c0.8,1.1,1.3,3,1.4,5.8h3.1v6.8h-14.4v-6.8h2.3v-1.3c0-2.7-0.6-4-1.9-4h-6.3v5.3h2.8
	v6.8h-14.4v-6.8h3.3L338.9,124.3z M347.3,128.3h6.2c0.7,0,1.3-0.3,1.7-0.9c0.3-0.4,0.4-0.9,0.4-1.4c0-1.1-0.9-2-2-2c0,0-0.1,0-0.1,0
	h-6.2V128.3z"/>
    <path class="st0" d="M373.2,124.3h-3.3v-6.8h23.3v8.2h-4.8V124h-6.8v4.3h8.3v6.1h-8.3v5.8h6.8v-1.9h4.8v8.2h-23.2v-6.8h3.3V124.3z"
    />
    <path class="st1" d="M400.6,117.5v4.8h37.1c0.8,0,1.5-0.4,1.9-1.1l2.3-3.7H400.6z"/>
    <path class="st2" d="M400.6,129.6v4.8h30.1c0.8,0,1.5-0.4,1.9-1.1l2.1-3.6H400.6z"/>
    <path class="st3" d="M400.6,141.7v4.8h23.3c0.8,0,1.5-0.4,1.9-1.1l2.1-3.7H400.6z"/>
    <path class="st1" d="M61,117.5v4.8H23.9c-0.8,0-1.5-0.4-1.9-1.1l-2.2-3.7H61z"/>
    <path class="st2" d="M61,129.6v4.8H30.8c-0.8,0-1.6-0.4-2-1.1l-2.1-3.6H61z"/>
    <path class="st3" d="M61,141.7v4.8H37.8c-0.8,0-1.6-0.4-2-1.1l-2.1-3.7H61z"/>
    <path class="st2" d="M236.7,56.6c0.3-0.1,0.6-0.2,0.7-0.4C237.9,55.1,237.1,56.1,236.7,56.6z"/>
    <path class="st2" d="M236.5,56.8l0.2-0.2l-0.2,0.1C236.5,56.7,236.5,56.8,236.5,56.8z"/>
    <path class="st2" d="M233.4,58c-0.8,4.3-0.4,12.2-0.4,12.2c-0.1-0.3-0.1-0.6-0.9-3.3c-0.5-2.9-3.5-3.2-5.4-2
	c-0.4,3.9,0.5,8.9,2.6,9.4c1.4,0.4,2.8,0.1,3.9-0.8c-0.5,2.2-1.7,3.8-3.5,4.1c-2.6,0.3-3.5-2-4.3-6.4c-0.2-1.2-0.3-2.4-0.3-3.5
	c-0.4-0.6-0.8-1.2-1.3-1.8c-1.3-1.1-3.1-1.1-4.4-0.2c-0.4,3.9,0.5,9,2.6,9.4c1.4,0.4,2.8,0.1,3.9-0.8c-0.5,2.2-1.7,3.8-3.5,4.1
	c-2.6,0.3-3.5-2-4.4-6.4c-0.4-1.5-0.4-3.1-0.1-4.6c-0.7,1.7-0.9,3.6-0.6,5.4c0.5,12.8,6.3,11.9,6.6,14.6l0.2,17.1h9.2l-0.1-17.4
	c-0.1-2.2,5.5-6,5.5-11.8c0-4.8,0.3-9.6,0.9-14.3C240.6,54.6,234.3,53.7,233.4,58z M235,58.3c-0.6,3-1,7.9-1.5,15
	c0-0.2-0.1-3.9-0.2-5.1c0,0-0.4-10.8,1.3-12c1.4-0.9,1.8,0,1.9,0.4C235.7,56.9,235.1,57.5,235,58.3z"/>
    <path class="st3" d="M237.1,49.7c0.8,1.6,4.6,7.5-0.3,7.1c-5.4-0.3-0.8-6.3,0.2-7.7L237.1,49.7z"/>
    <path class="st3" d="M230.9,79.6c-0.4-1.1-5.5-7.2,0.7-6.8c4.1,0.2,1.3,5.9-0.5,7.4L230.9,79.6z"/>
    <path class="st1" d="M166.5,73c-0.3-1.8-0.1-3.7,0.6-5.4c-0.3,1.5-0.3,3.1,0.1,4.6c0.8,4.4,1.7,6.7,4.3,6.4c1.8-0.2,3.1-1.8,3.5-4.1
	c-1.1,0.8-2.6,1.1-3.9,0.8c-2.1-0.5-3-5.5-2.7-9.4c1.3-1,3.3-1.3,4.4,0.2c1.5,1.9,2.3,4.3,2.3,6.7c0,0-0.6-4-1.2-11.1
	c-0.3-3.6,0.4-5.4,1.2-6.2c1.7-0.3,3.3-0.6,3.7,1.5c0.1,0.9,3.5,16,3.8,16.1c1.4-3.6,2.4-7.2,3.1-11c0.8-4.1,1.9-5.7,2.7-6.3
	c-0.3,0-0.6,0-0.9,0c2.1-0.4,4.8,1.6,4.3,6c-0.8,6.6-2.5,14-2.5,14c-1.2,4.8-5,8.7-4.9,10.9l1.5,18h-12.7l-0.2-17.1
	C172.8,84.9,167,85.8,166.5,73"/>
    <path class="st3" d="M176,49.9c0.9,1.5,5.4,6.9,0.5,7.1c-5.4,0.3-1.5-6.2-0.6-7.7L176,49.9z"/>
    <path class="st3" d="M190.8,51.7c0.5,1.7,3.6,8-1.3,7c-5.3-1,0.1-6.4,1.2-7.6L190.8,51.7z"/>
    <path class="st3" d="M295.5,55.8c-0.1-1.9-3.7-2.5-4.2,0.3c-0.4,2.3-1,5.4-1.2,6.6c-0.3-0.5-0.9-0.8-1.5-0.9
	c-1.7-0.1-2.5,0.8-2.7,2.8l0,0l-0.4,0.1c-0.1-1.7-0.6-2.9-1.8-3c-1-0.2-2.1,0.2-2.7,1.1c0-2.9-0.1-6.9-0.3-8.3c-0.3-2.3-1-3-2.1-3.1
	s-2.5,1-2.6,3.3c-0.2,3,0,14.5-2.2,15.8c-2.3,1.3-3.5-2-5.1-3.9s-3.2-2.4-4.2-1.7l0,0l0,0l0,0l0,0l0,0v0l0,0l0,0l0,0v0.1l0,0l0,0
	v0.1v0.1v0.1c0,0,0,0,0,0.1v0.1v0.1c0,0,0,0,0,0.1v0.1c0,0,0.2,2.7,0,0.1c0,0,0,0,0,0.1V66c0,0,0,0,0,0.1s0,0,0,0.1s0,0.1,0,0.1v0.1
	c0,0,0,0.1,0,0.1v0.2c0,0,0,0.1,0,0.1v0.1c0,0,0,0.1,0,0.1c0,0,0,0.1,0,0.1c0,0,0,0.1,0,0.1s0,0.1,0,0.1c0,0,0,0.1,0,0.1v0.1
	c0,0,0,0.1,0,0.1l0,0v0.1l0,0v0.1c0,0,0,0.1,0,0.1v0.1c0,0,0,0.1,0,0.1l0,0l0,0.1c0,0,0,0.1,0,0.1c0,0,0,0.1,0,0.1l0,0l0.1,0.1l0,0
	l0.1,0.1l0.1,0.1l0.1,0.1c0,0,0,0.1,0.1,0.1l0,0c0,0,0,0.1,0.1,0.1l0.1,0.1l0,0l0.1,0.1l0,0c0,0,0,0.1,0.1,0.1l0,0l0.1,0.1l0.1,0.2
	l0,0l0.1,0.1l0,0c0,0,0.1,0.1,0.1,0.2l0,0l0.1,0.2l0,0l0.1,0.2l0,0l0.1,0.2l0,0l0.1,0.2l0,0l0.1,0.2l0,0l0.1,0.1l0,0
	c0,0,0.1,0.1,0.1,0.1l0,0l0.1,0.1l0,0c0,0,0.1,0.1,0.1,0.1l0,0c0,0,0.1,0.1,0.1,0.1l0,0l0.1,0.1l0,0l0.1,0.1v0.1l0.1,0.1l0,0
	c0,0.1,0.1,0.1,0.1,0.2v0.1l0.1,0.1v0.1l0,0l0.1,0.1l0.1,0.1l0,0.1l0,0.1l0,0l0.1,0.1l0.1,0.1l0,0l0,0.1l0,0l0.1,0.1
	c0.2,0.3,0.3,0.6,0.5,0.8l0,0l0.1,0.2l0,0c0.3,0.4,0.5,0.8,0.8,1.3l0,0l0.3,0.4l0,0l0.1,0.2l0,0l0.1,0.2l0,0l0.1,0.2l0,0l0.1,0.2
	v0.1l0.1,0.1l0,0l0.1,0.2l0,0l0.1,0.2l0,0l0.1,0.2l0,0l0.1,0.2l0.1,0.1l0.1,0.1l0,0L271,78l0,0l0.1,0.2l0,0l0.1,0.2v0.1l0.1,0.2l0,0
	l0.2,0.2l0,0.1h0l0,0l0.1,0.1l0,0L272,79l0,0l0.2,0.2l0,0l0.2,0.2l0,0l0.2,0.2l0,0l0.2,0.2l0,0l0.2,0.1l0,0l0.2,0.2l0,0
	c3.9,4.5,4.6,15.2,4.2,24.7h10.5c-0.3-10.3,0.2-21.1,3.8-25.1c0,0,0.1,0,0.1-0.1l0,0l0.1-0.1l0.1-0.1l0,0l0.1-0.1l0,0
	c1.2-1.4,1.9-3.1,2.1-4.9C295.1,68.2,295.6,62,295.5,55.8z M276.9,69.9c-0.9,2-3.6,3-5,1.3c-0.1-0.2-0.2-0.3-0.2-0.5
	c0.6,0.8,1.7,1,2.5,0.4c2.3-1.3,2.1-12.8,2.2-15.9c-0.1-1.3,0.7-2.6,1.9-3.2l0.3,0c0,0-0.8,0.7-0.7,5S277.8,67.9,276.9,69.9z
	 M284.1,77.4c-0.2,0.1-0.4-0.1-0.5-0.3c-0.5-2.3-2.4-4.2-4.8-4.6c-0.2,0-0.4-0.2-0.4-0.5c0-0.2,0.2-0.4,0.4-0.4c0,0,0,0,0,0
	c2.7,0.5,4.8,2.6,5.4,5.2C284.4,77.1,284.3,77.3,284.1,77.4z M282.5,71.7c-1.7-0.3-2.2-1.8-2.2-4.9c0-2.4,0.7-4,2-4.5
	c-0.6,1.8-1.2,5.5,0.2,7c0.9,1,1.7,1.1,2.1,0.9C284.2,71.3,283.4,71.9,282.5,71.7z M287.8,71.8c-1.7-0.2-2-1.9-1.9-5.2
	c0-2.4,0.5-3.9,1.7-4.4c-0.8,2.7-0.9,6.5,0.5,7.1c0.8,0.4,1.8,0.4,2.6,0C290,70.9,289,71.9,287.8,71.8z M292.4,59.3
	c-0.3,2.1-1.2,6.9-1.2,6.9c-0.1-1.2-0.5-2.3-1-3.3c0.2-1.2,0.8-4.4,1.2-6.7c0.1-1.1,0.9-1.9,2-1.9C292.8,55.9,292.5,57.6,292.4,59.3
	L292.4,59.3z"/>
    <path class="st3" d="M223.4,80.1c-0.4-1.1-5.5-7.2,0.7-6.8c4.1,0.2,1.3,5.9-0.5,7.4L223.4,80.1z"/>
</svg>
